<svg width="190" height="251" viewBox="0 0 190 251" fill="none" xmlns="http://www.w3.org/2000/svg">
<path d="M259.28 166.982C251.085 196.8 232.681 222.794 207.28 240.429C181.879 258.065 151.092 266.223 120.29 263.48C89.4891 260.736 60.6285 247.266 38.7434 225.419C16.8583 203.573 3.33794 174.735 0.541031 143.939C-2.25588 113.143 5.84818 82.3415 23.4394 56.9094C41.0307 31.4772 66.9924 13.0283 96.7956 4.78108C126.599 -3.46614 158.352 -0.98813 186.514 11.7828C214.677 24.5537 237.463 46.8069 250.896 74.6602L199.76 99.3214C192.104 83.4475 179.119 70.7652 163.068 63.4869C147.018 56.2086 128.922 54.7963 111.937 59.4965C94.9515 64.1967 80.1556 74.711 70.1301 89.205C60.1047 103.699 55.4861 121.253 57.0801 138.804C58.6741 156.355 66.3795 172.79 78.852 185.241C91.3246 197.692 107.773 205.368 125.327 206.932C142.881 208.495 160.426 203.846 174.903 193.795C189.379 183.744 199.868 168.93 204.538 151.937L259.28 166.982Z" fill="#6C78C7"/>
</svg>
