<svg width="316" height="271" viewBox="0 0 316 271" fill="none" xmlns="http://www.w3.org/2000/svg">
<path d="M30.471 12C30.471 67.8787 17.399 124.945 21.9696 180.477C23.1509 194.83 46.379 165.102 47.4738 163.033C58.0072 143.125 67.6637 123.122 74.8671 102.895C92.1988 54.2287 89.4022 114.462 89.9807 132.735C90.499 149.107 98.4821 165.016 98.4821 181.396C98.4821 198.699 110.526 180.645 115.485 173.132C126.191 156.911 140.989 106.518 140.989 123.553C140.989 160.621 149.49 197.186 149.49 234.188C149.49 242.526 158.711 224.859 159.881 222.712C164.496 214.238 162.241 191.265 174.994 197.463C193.286 206.352 194.214 246.961 200.499 259.896C202.737 264.503 209 287.973 209 284.686" stroke="#105332" stroke-width="23" stroke-linecap="round"/>
<path d="M-214 322.814C-103.111 314.511 58.2965 328.238 151.081 252.863C195.447 216.822 232.48 170.084 265.567 123.77C278.843 105.187 293.231 86.0188 302.457 65.2648C306.289 56.6445 278.137 75.3111 269.383 76.7114C252.634 79.3909 201.856 82.4348 218.819 82.4348C244.171 82.4348 269.08 68.1249 294.506 65.5827C311.531 63.8806 301.002 87.9983 298.323 102.466C296.808 110.646 296.427 145.391 295.46 145.391" stroke="#105332" stroke-width="23" stroke-linecap="round"/>
</svg>
