<svg width="123" height="165" viewBox="0 0 123 165" fill="none" xmlns="http://www.w3.org/2000/svg">
<path d="M34.7899 8.505C33.8316 7.69172 32.7138 7.08787 31.5083 6.73224C30.3028 6.37661 29.0362 6.27707 27.7899 6.44C26.4554 6.61744 25.1722 7.06989 24.0215 7.76873C22.8709 8.46758 21.8777 9.39761 21.1049 10.5L20.9999 10.5875L20.8949 10.5C20.1222 9.39761 19.129 8.46758 17.9783 7.76873C16.8277 7.06989 15.5445 6.61744 14.2099 6.44C12.9637 6.27707 11.6971 6.37661 10.4916 6.73224C9.28604 7.08787 8.16823 7.69172 7.20994 8.505C6.2307 9.32948 5.43382 10.3488 4.87002 11.4981C4.30622 12.6473 3.98786 13.9014 3.93518 15.1804C3.8825 16.4594 4.09667 17.7354 4.56406 18.9272C5.03145 20.1189 5.74181 21.2003 6.64994 22.1025L19.5824 35C19.9616 35.3699 20.4703 35.5769 20.9999 35.5769C21.5296 35.5769 22.0383 35.3699 22.4174 35L35.3499 22.05C36.2581 21.1478 36.9684 20.0664 37.4358 18.8747C37.9032 17.6829 38.1174 16.4069 38.0647 15.1279C38.012 13.8489 37.6937 12.5948 37.1299 11.4456C36.5661 10.2963 35.7692 9.27698 34.7899 8.4525V8.505Z" fill="#FFBBF5"/>
<path d="M97.7899 124.505C96.8316 123.692 95.7138 123.088 94.5083 122.732C93.3028 122.377 92.0362 122.277 90.7899 122.44C89.4554 122.617 88.1722 123.07 87.0215 123.769C85.8709 124.468 84.8777 125.398 84.1049 126.5L83.9999 126.588L83.8949 126.5C83.1222 125.398 82.129 124.468 80.9783 123.769C79.8277 123.07 78.5445 122.617 77.2099 122.44C75.9637 122.277 74.6971 122.377 73.4916 122.732C72.286 123.088 71.1682 123.692 70.2099 124.505C69.2307 125.329 68.4338 126.349 67.87 127.498C67.3062 128.647 66.9879 129.901 66.9352 131.18C66.8825 132.459 67.0967 133.735 67.5641 134.927C68.0314 136.119 68.7418 137.2 69.6499 138.103L82.5824 151C82.9616 151.37 83.4703 151.577 83.9999 151.577C84.5296 151.577 85.0383 151.37 85.4174 151L98.3499 138.05C99.2581 137.148 99.9684 136.066 100.436 134.875C100.903 133.683 101.117 132.407 101.065 131.128C101.012 129.849 100.694 128.595 100.13 127.446C99.5661 126.296 98.7692 125.277 97.7899 124.453V124.505Z" fill="#FEF371"/>
<path d="M86.1933 41.67C85.5545 41.1278 84.8093 40.7253 84.0056 40.4882C83.2019 40.2511 82.3575 40.1847 81.5267 40.2933C80.637 40.4116 79.7815 40.7133 79.0144 41.1792C78.2473 41.6451 77.5852 42.2651 77.07 43L77 43.0583L76.93 43C76.4148 42.2651 75.7527 41.6451 74.9856 41.1792C74.2185 40.7133 73.363 40.4116 72.4733 40.2933C71.6425 40.1847 70.7981 40.2511 69.9944 40.4882C69.1907 40.7253 68.4455 41.1278 67.8067 41.67C67.1538 42.2197 66.6226 42.8992 66.2467 43.6654C65.8709 44.4316 65.6586 45.2676 65.6235 46.1203C65.5884 46.973 65.7312 47.8236 66.0427 48.6181C66.3543 49.4126 66.8279 50.1335 67.4333 50.735L76.055 59.3333C76.3078 59.5799 76.6469 59.7179 77 59.7179C77.3531 59.7179 77.6922 59.5799 77.945 59.3333L86.5667 50.7C87.1721 50.0985 87.6457 49.3776 87.9573 48.5831C88.2688 47.7886 88.4116 46.938 88.3765 46.0853C88.3414 45.2326 88.1292 44.3966 87.7533 43.6304C87.3774 42.8642 86.8462 42.1847 86.1933 41.635V41.67Z" fill="#BBC4FF"/>
<path d="M42.1933 142.67C41.5545 142.128 40.8093 141.725 40.0056 141.488C39.2019 141.251 38.3575 141.185 37.5267 141.293C36.637 141.412 35.7815 141.713 35.0144 142.179C34.2473 142.645 33.5852 143.265 33.07 144L33 144.058L32.93 144C32.4148 143.265 31.7527 142.645 30.9856 142.179C30.2185 141.713 29.363 141.412 28.4733 141.293C27.6425 141.185 26.7981 141.251 25.9944 141.488C25.1907 141.725 24.4455 142.128 23.8067 142.67C23.1538 143.22 22.6226 143.899 22.2467 144.665C21.8709 145.432 21.6586 146.268 21.6235 147.12C21.5884 147.973 21.7312 148.824 22.0427 149.618C22.3543 150.413 22.8279 151.134 23.4333 151.735L32.055 160.333C32.3078 160.58 32.6469 160.718 33 160.718C33.3531 160.718 33.6922 160.58 33.945 160.333L42.5667 151.7C43.1721 151.099 43.6457 150.378 43.9573 149.583C44.2688 148.789 44.4116 147.938 44.3765 147.085C44.3414 146.233 44.1292 145.397 43.7533 144.63C43.3774 143.864 42.8462 143.185 42.1933 142.635V142.67Z" fill="#BBC4FF"/>
<path d="M119.91 3.64501C119.499 3.29646 119.02 3.03767 118.504 2.88525C117.987 2.73284 117.444 2.69018 116.91 2.76001C116.338 2.83605 115.788 3.02996 115.295 3.32947C114.802 3.62897 114.376 4.02755 114.045 4.50001L114 4.53751L113.955 4.50001C113.624 4.02755 113.198 3.62897 112.705 3.32947C112.212 3.02996 111.662 2.83605 111.09 2.76001C110.556 2.69018 110.013 2.73284 109.496 2.88525C108.98 3.03767 108.501 3.29646 108.09 3.64501C107.67 3.99836 107.329 4.43521 107.087 4.92775C106.846 5.42029 106.709 5.95775 106.687 6.5059C106.664 7.05406 106.756 7.60091 106.956 8.11165C107.156 8.6224 107.461 9.08585 107.85 9.47251L113.393 15C113.555 15.1585 113.773 15.2472 114 15.2472C114.227 15.2472 114.445 15.1585 114.608 15L120.15 9.45001C120.539 9.06335 120.844 8.5999 121.044 8.08915C121.244 7.57841 121.336 7.03156 121.314 6.4834C121.291 5.93525 121.154 5.39779 120.913 4.90525C120.671 4.41271 120.33 3.97586 119.91 3.62251V3.64501Z" fill="#FEF371"/>
<path d="M68.91 96.645C68.4993 96.2965 68.0203 96.0377 67.5036 95.8853C66.987 95.7328 66.4442 95.6902 65.91 95.76C65.3381 95.8361 64.7882 96.03 64.295 96.3295C63.8019 96.629 63.3762 97.0276 63.045 97.5L63 97.5375L62.955 97.5C62.6239 97.0276 62.1982 96.629 61.7051 96.3295C61.2119 96.03 60.662 95.8361 60.09 95.76C59.5559 95.6902 59.0131 95.7328 58.4965 95.8853C57.9798 96.0377 57.5007 96.2965 57.09 96.645C56.6704 96.9984 56.3288 97.4352 56.0872 97.9278C55.8456 98.4203 55.7092 98.9577 55.6866 99.5059C55.664 100.054 55.7558 100.601 55.9561 101.112C56.1564 101.622 56.4608 102.086 56.85 102.473L62.3925 108C62.555 108.159 62.773 108.247 63 108.247C63.227 108.247 63.4451 108.159 63.6075 108L69.15 102.45C69.5392 102.063 69.8437 101.6 70.044 101.089C70.2443 100.578 70.3361 100.032 70.3135 99.4834C70.2909 98.9352 70.1545 98.3978 69.9129 97.9053C69.6712 97.4127 69.3297 96.9759 68.91 96.6225V96.645Z" fill="#FD94A1"/>
<path d="M33.91 63.645C33.4993 63.2965 33.0203 63.0377 32.5036 62.8853C31.987 62.7328 31.4442 62.6902 30.91 62.76C30.3381 62.8361 29.7882 63.03 29.295 63.3295C28.8019 63.629 28.3762 64.0276 28.045 64.5L28 64.5375L27.955 64.5C27.6239 64.0276 27.1982 63.629 26.7051 63.3295C26.2119 63.03 25.662 62.8361 25.09 62.76C24.5559 62.6902 24.0131 62.7328 23.4965 62.8853C22.9798 63.0377 22.5007 63.2965 22.09 63.645C21.6704 63.9984 21.3288 64.4352 21.0872 64.9278C20.8456 65.4203 20.7092 65.9577 20.6866 66.5059C20.664 67.0541 20.7558 67.6009 20.9561 68.1117C21.1564 68.6224 21.4608 69.0858 21.85 69.4725L27.3925 75C27.555 75.1585 27.773 75.2472 28 75.2472C28.227 75.2472 28.4451 75.1585 28.6075 75L34.15 69.45C34.5392 69.0633 34.8437 68.5999 35.044 68.0892C35.2443 67.5784 35.3361 67.0316 35.3135 66.4834C35.2909 65.9352 35.1545 65.3978 34.9129 64.9053C34.6712 64.4127 34.3297 63.9759 33.91 63.6225V63.645Z" fill="#FFBBBB"/>
</svg>
