<svg width="70" height="50" viewBox="0 0 70 50" fill="none" xmlns="http://www.w3.org/2000/svg">
<path d="M8.45364 28.7389V18.8878H10.2342V28.7389H8.45364ZM12.9339 28.7389V18.8878H14.6743V20.4761H14.9544C15.1672 20.0205 15.5241 19.6116 16.0245 19.25C16.5249 18.8884 17.2611 18.7073 18.2349 18.7073C18.9682 18.7073 19.6281 18.8648 20.2151 19.1796C20.8015 19.4946 21.2652 19.9571 21.6054 20.5667C21.9451 21.1769 22.1156 21.9168 22.1156 22.7882V28.7389H20.335V22.929C20.335 21.9912 20.1049 21.3072 19.6447 20.8781C19.1845 20.449 18.5544 20.2345 17.7546 20.2345C16.8473 20.2345 16.1146 20.5361 15.5546 21.1394C14.9945 21.7426 14.7145 22.6204 14.7145 23.7727V28.7383L12.9339 28.7389ZM28.5709 29.0203C27.3441 29.0203 26.3136 28.7389 25.4804 28.176C24.6472 27.6131 24.1434 26.7353 23.9701 25.5421L25.6502 25.1603C25.7432 25.7635 25.9302 26.2393 26.2102 26.5877C26.4903 26.9366 26.8369 27.1846 27.2506 27.3317C27.6638 27.4793 28.1039 27.5525 28.5709 27.5525C29.2779 27.5525 29.8276 27.4153 30.2212 27.1408C30.6143 26.8662 30.8111 26.5006 30.8111 26.045C30.8111 25.5894 30.6241 25.2411 30.2511 25.0398C29.8775 24.8391 29.3507 24.6782 28.6708 24.5576L27.8904 24.4169C27.25 24.2964 26.667 24.1222 26.1402 23.8944C25.6135 23.6666 25.1935 23.358 24.8802 22.9693C24.5669 22.5806 24.4102 22.0783 24.4102 21.4617C24.4102 20.5638 24.7534 19.8631 25.4402 19.3608C26.1271 18.8584 27.0302 18.607 28.1509 18.607C29.2715 18.607 30.161 18.8549 30.8611 19.3509C31.5611 19.8469 32.0109 20.5373 32.2112 21.422L30.5512 21.8845C30.4312 21.2276 30.161 20.7587 29.7409 20.4773C29.3209 20.1959 28.7907 20.0551 28.1509 20.0551C27.5111 20.0551 27.0509 20.1728 26.6906 20.4069C26.3308 20.6417 26.1506 20.9796 26.1506 21.422C26.1506 21.8643 26.3204 22.1896 26.6607 22.3972C27.001 22.6054 27.4641 22.7629 28.0511 22.8696L28.8114 22.9901C29.5177 23.1106 30.1547 23.2785 30.7216 23.4924C31.288 23.7069 31.7349 24.0086 32.0615 24.3973C32.388 24.786 32.5515 25.3091 32.5515 25.9654C32.5515 26.9435 32.1917 27.6979 31.4715 28.2267C30.7514 28.7562 29.7846 29.0203 28.5709 29.0203ZM34.6115 28.7389V18.8878H36.392V28.7389H34.6115ZM38.5019 23.8535V23.572C38.5019 22.5403 38.7119 21.6521 39.132 20.9081C39.552 20.1641 40.1086 19.5949 40.8023 19.1993C41.4955 18.8042 42.269 18.6064 43.1228 18.6064C44.123 18.6064 44.8896 18.7944 45.4233 19.1693C45.9564 19.5447 46.35 19.9599 46.6036 20.4156H46.9037V18.8878H48.6039V30.9103C48.6039 31.4864 48.4467 31.938 48.134 32.2673C47.8207 32.5954 47.3702 32.7598 46.7838 32.7598H40.143V31.1917H46.2639C46.6638 31.1917 46.8641 30.9904 46.8641 30.5885V27.0698H46.564C46.4039 27.3513 46.1841 27.6264 45.9041 27.894C45.6241 28.1622 45.2574 28.383 44.8041 28.5572C44.3508 28.7314 43.7907 28.8185 43.124 28.8185C42.2707 28.8185 41.4938 28.6212 40.7938 28.2256C40.0937 27.8306 39.5365 27.2608 39.1234 26.5167C38.7096 25.7728 38.5031 24.8852 38.5031 23.8529L38.5019 23.8535ZM43.5825 27.2509C44.5425 27.2509 45.3326 26.9464 45.9529 26.3362C46.5732 25.7267 46.883 24.8783 46.883 23.7929V23.632C46.883 22.5333 46.5761 21.682 45.9627 21.0788C45.3493 20.4756 44.5557 20.174 43.5825 20.174C42.6093 20.174 41.8524 20.4756 41.2322 21.0788C40.6119 21.682 40.302 22.5333 40.302 23.632V23.7929C40.302 24.8783 40.6119 25.7267 41.2322 26.3362C41.8524 26.9464 42.6357 27.2509 43.5825 27.2509ZM51.0828 28.7389V14.6662H52.8633V20.3758H53.1433C53.2903 20.1082 53.4934 19.8435 53.7533 19.5816C54.0133 19.3204 54.3564 19.1093 54.7833 18.9484C55.2096 18.7875 55.7433 18.7073 56.3836 18.7073C57.117 18.7073 57.7769 18.8682 58.3639 19.1895C58.9503 19.5112 59.414 19.9738 59.7543 20.577C60.094 21.1803 60.2644 21.9174 60.2644 22.7882V28.7389H58.4838V22.929C58.4838 21.9912 58.2537 21.3106 57.7935 20.8879C57.3333 20.4658 56.7033 20.2547 55.9034 20.2547C54.9962 20.2547 54.2635 20.5529 53.7034 21.1491C53.1433 21.7461 52.8633 22.6204 52.8633 23.7727V28.7383L51.0828 28.7389ZM66.3169 28.7389C65.744 28.7389 65.2934 28.5751 64.9669 28.2464C64.6397 27.9182 64.4767 27.4655 64.4767 26.8893V20.3954H61.6364V18.8878H64.4767V15.4701H66.257V18.8878H69.357V20.3954H66.257V26.6079C66.257 27.0099 66.4502 27.2111 66.8366 27.2111H68.957V28.7389H66.3169ZM7.64228 40.285V40.0035C7.64228 38.9717 7.85228 38.0836 8.27228 37.3396C8.69234 36.5956 9.24895 36.0258 9.94265 35.6308C10.6359 35.2357 11.4093 35.0379 12.2631 35.0379C13.2633 35.0379 14.0299 35.2259 14.5636 35.6008C15.0967 35.9762 15.4903 36.392 15.7439 36.8477H16.044V35.3193H17.7443V47.3417C17.7443 47.9179 17.587 48.3701 17.2743 48.6988C16.961 49.0269 16.5106 49.1913 15.9241 49.1913H9.28333V47.6232H15.4042C15.8042 47.6232 16.0044 47.4225 16.0044 47.02V43.5019H15.7043C15.5443 43.7833 15.3244 44.0585 15.0444 44.3261C14.7644 44.5942 14.3978 44.8157 13.9444 44.9893C13.4911 45.164 12.9311 45.2506 12.2643 45.2506C11.411 45.2506 10.6341 45.0527 9.93407 44.6577C9.23401 44.2626 8.67685 43.6928 8.2637 42.9488C7.85 42.2049 7.64339 41.3173 7.64339 40.285H7.64228ZM12.7228 43.6824C13.6828 43.6824 14.4729 43.3779 15.0932 42.7677C15.7135 42.1575 16.0234 41.3098 16.0234 40.2244V40.0635C16.0234 38.9648 15.7164 38.113 15.103 37.5103C14.4896 36.9071 13.696 36.6054 12.7228 36.6054C11.7496 36.6054 10.9928 36.9071 10.3725 37.5103C9.75216 38.113 9.44228 38.9642 9.44228 40.0635V40.2244C9.44228 41.3098 9.75216 42.1575 10.3725 42.7677C10.9928 43.3779 11.776 43.6824 12.7228 43.6824ZM24.7568 45.4518C23.7567 45.4518 22.8867 45.2408 22.1465 44.8186C21.4063 44.3964 20.8262 43.803 20.4062 43.0394C19.9861 42.2752 19.7761 41.3841 19.7761 40.3657V40.1246C19.7761 39.1061 19.9827 38.2145 20.3964 37.4509C20.8096 36.6873 21.3828 36.0939 22.1167 35.6717C22.85 35.2495 23.697 35.0385 24.657 35.0385C25.617 35.0385 26.414 35.2391 27.1272 35.6417C27.8405 36.0437 28.3971 36.617 28.7976 37.3609C29.1975 38.1049 29.3978 38.9729 29.3978 39.9643V40.7083H21.5767C21.6031 41.7002 21.9199 42.4777 22.527 43.0405C23.1335 43.6034 23.8904 43.8849 24.797 43.8849C25.6101 43.8849 26.2304 43.7009 26.6573 43.3324C27.0836 42.9638 27.4107 42.525 27.6373 42.0157L29.1574 42.7596C28.9577 43.1616 28.6806 43.5706 28.3271 43.9858C27.9736 44.4016 27.5099 44.75 26.9367 45.0314C26.3629 45.3129 25.6365 45.4535 24.7562 45.4535L24.7568 45.4518ZM21.5968 39.2993H27.5978C27.5444 38.455 27.2506 37.7952 26.7175 37.3188C26.1839 36.843 25.4976 36.6054 24.657 36.6054C23.8164 36.6054 23.1099 36.8436 22.5763 37.3188C22.0427 37.7946 21.7167 38.455 21.5968 39.2993ZM31.475 45.1704V35.3193H33.2154V36.9076H33.4954C33.7083 36.452 34.0652 36.0431 34.5656 35.6809C35.0659 35.3193 35.8022 35.1382 36.7759 35.1382C37.5093 35.1382 38.1691 35.2957 38.7561 35.6106C39.3426 35.9261 39.8062 36.388 40.1465 36.9982C40.4862 37.6083 40.6566 38.3483 40.6566 39.2197V45.1704H38.8761V39.3604C38.8761 38.4227 38.6459 37.7387 38.1857 37.3096C37.7256 36.8811 37.0955 36.6666 36.2956 36.6666C35.3884 36.6666 34.6557 36.9682 34.0956 37.5714C33.5356 38.1747 33.2556 39.0525 33.2556 40.2048V45.1704H31.475ZM43.2565 45.1704V35.3193H45.0371V45.1704H43.2565ZM52.1753 45.4518C51.1752 45.4518 50.3053 45.2408 49.5651 44.8186C48.8248 44.3964 48.2447 43.803 47.8247 43.0394C47.4046 42.2752 47.1946 41.3841 47.1946 40.3657V40.1246C47.1946 39.1061 47.4012 38.2145 47.8149 37.4509C48.2281 36.6873 48.8013 36.0939 49.5352 35.6717C50.2685 35.2495 51.1155 35.0385 52.0755 35.0385C53.0355 35.0385 53.8325 35.2391 54.5457 35.6417C55.259 36.0437 55.8156 36.617 56.2161 37.3609C56.6161 38.1049 56.8163 38.9729 56.8163 39.9643V40.7083H48.9953C49.0217 41.7002 49.3384 42.4777 49.9455 43.0405C50.552 43.6034 51.3089 43.8849 52.2155 43.8849C53.0286 43.8849 53.6489 43.7009 54.0758 43.3324C54.5022 42.9638 54.8292 42.525 55.0559 42.0157L56.5759 42.7596C56.3762 43.1616 56.0991 43.5706 55.7456 43.9858C55.3921 44.4016 54.9285 44.75 54.3553 45.0314C53.7814 45.3129 53.055 45.4535 52.1748 45.4535L52.1753 45.4518ZM49.0148 39.2993H55.0157C54.9623 38.455 54.6685 37.7952 54.1355 37.3188C53.6019 36.843 52.9156 36.6054 52.0749 36.6054C51.2343 36.6054 50.5279 36.8436 49.9943 37.3188C49.4606 37.7946 49.1347 38.455 49.0148 39.2993ZM11.8052 15.4708H6.88253V16.8289H11.8052V15.4708ZM37.9632 15.4708H33.0404V16.8289H37.9632V15.4708ZM10.0196 -0.191406H8.66821V4.90281H10.0196V-0.191406ZM5.56849 7.95945H0.5V9.31767H5.56849V7.95945ZM7.17345 5.54816L4.65326 3.01519L3.69786 3.97544L6.21802 6.50841L7.17345 5.54816ZM7.17345 11.7283L6.21802 10.7681L3.69786 13.3011L4.65326 14.2614L7.17345 11.7283ZM18.1878 7.95945H13.1193V9.31767H18.1878V7.95945ZM14.9894 3.97544L14.0339 3.01519L11.5138 5.54816L12.4692 6.50841L14.9894 3.97544ZM14.9894 13.3011L12.4692 10.7681L11.5138 11.7283L14.0339 14.2614L14.9894 13.3011Z" fill="white"/>
</svg>
