<svg width="92" height="44" viewBox="0 0 92 44" fill="none" xmlns="http://www.w3.org/2000/svg">
<rect width="92" height="44" rx="22" fill="#FEF371"/>
<path d="M10.0337 22.5066C10.4797 28.685 15.8944 33.7117 22.3747 33.9877C26.9468 34.1796 31.0357 32.1161 33.489 28.865C34.505 27.5333 33.9599 26.6455 32.2623 26.9455C31.4322 27.0894 30.5772 27.1494 29.6851 27.1134C23.6261 26.8735 18.6699 21.9667 18.6451 16.1722C18.6327 14.6126 18.9673 13.137 19.5744 11.7934C20.2435 10.3057 19.4381 9.59792 17.8893 10.2338C12.9826 12.2372 9.62476 17.024 10.0337 22.5066Z" stroke="#181818" stroke-width="2" stroke-linecap="round" stroke-linejoin="round"/>
<path d="M72.0002 29.8C76.308 29.8 79.8002 26.3078 79.8002 22C79.8002 17.6921 76.308 14.2 72.0002 14.2C67.6924 14.2 64.2002 17.6921 64.2002 22C64.2002 26.3078 67.6924 29.8 72.0002 29.8Z" stroke="#181818" stroke-width="2" stroke-linecap="round" stroke-linejoin="round"/>
<path d="M80.568 30.568L80.412 30.412M80.412 13.588L80.568 13.432L80.412 13.588ZM63.432 30.568L63.588 30.412L63.432 30.568ZM72 10.096V10V10.096ZM72 34V33.904V34ZM60.096 22H60H60.096ZM84 22H83.904H84ZM63.588 13.588L63.432 13.432L63.588 13.588Z" stroke="#181818" stroke-width="2" stroke-linecap="round" stroke-linejoin="round"/>
<circle cx="71.6274" cy="22.6274" r="16" transform="rotate(45 71.6274 22.6274)" fill="white"/>
<path d="M62.2932 31.9624C57.1419 26.811 57.1453 18.4557 62.3008 13.3002" stroke="#181818" stroke-width="2" stroke-linecap="round"/>
</svg>
