<svg width="88" height="40" viewBox="0 0 88 40" fill="none" xmlns="http://www.w3.org/2000/svg">
<rect width="88" height="40" rx="20" fill="black"/>
<rect x="4" y="4" width="32" height="32" rx="16" fill="#181818"/>
<path d="M8.03365 20.5066C8.47971 26.685 13.8944 31.7117 20.3747 31.9877C24.9468 32.1796 29.0357 30.1161 31.489 26.865C32.505 25.5333 31.9599 24.6455 30.2623 24.9455C29.4322 25.0894 28.5772 25.1494 27.6851 25.1134C21.6261 24.8735 16.6699 19.9667 16.6451 14.1722C16.6327 12.6126 16.9673 11.137 17.5744 9.79335C18.2435 8.30573 17.4381 7.59792 15.8893 8.23375C10.9826 10.2372 7.62476 15.024 8.03365 20.5066Z" stroke="white" stroke-width="2" stroke-linecap="round" stroke-linejoin="round"/>
<path d="M68.0002 27.8C72.308 27.8 75.8002 24.3078 75.8002 20C75.8002 15.6922 72.308 12.2 68.0002 12.2C63.6924 12.2 60.2002 15.6922 60.2002 20C60.2002 24.3078 63.6924 27.8 68.0002 27.8Z" stroke="#FEF371" stroke-width="2" stroke-linecap="round" stroke-linejoin="round"/>
<path d="M76.568 28.568L76.412 28.412M76.412 11.588L76.568 11.432L76.412 11.588ZM59.432 28.568L59.588 28.412L59.432 28.568ZM68 8.096V8V8.096ZM68 32V31.904V32ZM56.096 20H56H56.096ZM80 20H79.904H80ZM59.588 11.588L59.432 11.432L59.588 11.588Z" stroke="#FEF371" stroke-width="2" stroke-linecap="round" stroke-linejoin="round"/>
<circle cx="19.627" cy="19.6274" r="16" transform="rotate(45 19.627 19.6274)" fill="#565656"/>
<path d="M10.2927 28.9623C5.1414 23.811 5.14478 15.4556 10.3003 10.3001" stroke="white" stroke-width="2" stroke-linecap="round"/>
</svg>
