<svg width="89" height="81" viewBox="0 0 89 81" fill="none" xmlns="http://www.w3.org/2000/svg">
<path fill-rule="evenodd" clip-rule="evenodd" d="M33.0932 0.580566C35.2818 17.9071 43.5803 26.9351 58.2622 27.5734C43.5803 28.3029 35.2818 37.331 33.0932 54.5663C30.8134 37.331 22.4237 28.3029 7.74179 27.5734C22.4237 26.9351 30.8134 17.9071 33.0932 0.580566Z" fill="#FEF371"/>
<path fill-rule="evenodd" clip-rule="evenodd" d="M72.0781 34.4692C73.5371 45.7771 79.0087 51.7045 88.675 52.1605C79.0087 52.6165 73.5371 58.5439 72.0781 69.9429C70.619 58.4528 65.1475 52.6165 55.5723 52.1605C65.0563 51.7045 70.619 45.7771 72.0781 34.4692Z" fill="#FEF371"/>
<path fill-rule="evenodd" clip-rule="evenodd" d="M12.18 54.8853C13.2743 63.0925 17.1955 67.2874 24.1261 67.6521C17.1955 67.9257 13.1831 72.3029 12.18 80.419C11.0857 72.3029 7.1644 68.0169 0.324997 67.6521C7.1644 67.2874 11.1768 63.0925 12.18 54.8853Z" fill="#FEF371"/>
</svg>
