<svg width="830" height="483" viewBox="0 0 830 483" fill="none" xmlns="http://www.w3.org/2000/svg">
<path d="M80.896 131L64.64 70.712L48 131H26.752L0.256 35.512H23.936L39.296 97.464L55.168 35.512H74.88L90.624 97.464L106.112 35.512H128.768L102.144 131H80.896ZM155.24 88.12V131H134.12V31.16H154.216V67C158.568 61.624 166.888 55.736 178.28 55.736C193.384 55.736 204.648 66.104 204.648 82.872V131H183.4V89.4C183.4 78.392 177.256 74.424 169.576 74.424C162.92 74.424 155.24 79.416 155.24 88.12ZM255.196 53.944C280.028 53.944 298.46 71.736 298.46 94.264C298.46 116.792 280.028 134.584 255.196 134.584C230.492 134.584 212.06 116.792 212.06 94.264C212.06 71.736 230.492 53.944 255.196 53.944ZM255.196 72.12C243.164 72.12 234.204 81.976 234.204 94.264C234.204 106.68 243.164 116.408 255.196 116.408C267.356 116.408 276.316 106.552 276.316 94.264C276.316 81.976 267.356 72.12 255.196 72.12ZM80.896 285L64.64 224.712L48 285H26.752L0.256 189.512H23.936L39.296 251.464L55.168 189.512H74.88L90.624 251.464L106.112 189.512H128.768L102.144 285H80.896ZM204.688 275.656C196.624 282.952 185.36 288.584 169.232 288.584C141.328 288.584 124.56 271.56 124.56 248.264C124.56 224.84 141.328 207.944 165.392 207.944C188.048 207.944 205.2 224.968 205.2 248.392V253.896H147.088C148.88 265.416 156.56 271.56 169.488 271.56C179.984 271.56 187.152 267.976 192.784 262.984L204.688 275.656ZM165.136 225.224C156.176 225.224 150.032 230.6 147.728 239.688H182.544C180.24 230.6 174.224 225.224 165.136 225.224ZM301.445 285L296.325 270.792H258.181L253.061 285H229.381L266.373 189.512H288.901L325.893 285H301.445ZM264.709 252.872H289.925L277.381 217.928L264.709 252.872ZM352.365 246.984V285H331.245V211.528H351.341V227.4C353.901 221.768 361.709 211.144 372.589 211.144H375.021V234.312C374.125 233.928 372.205 233.672 370.925 233.672C359.661 233.672 352.365 241.48 352.365 246.984ZM458.313 275.656C450.249 282.952 438.985 288.584 422.857 288.584C394.953 288.584 378.185 271.56 378.185 248.264C378.185 224.84 394.953 207.944 419.017 207.944C441.673 207.944 458.825 224.968 458.825 248.392V253.896H400.713C402.505 265.416 410.185 271.56 423.113 271.56C433.609 271.56 440.777 267.976 446.409 262.984L458.313 275.656ZM418.761 225.224C409.801 225.224 403.657 230.6 401.353 239.688H436.169C433.865 230.6 427.849 225.224 418.761 225.224Z" fill="black"/>
<path d="M11.88 369L9.234 359.388L6.516 369H4.14L0.288 355.572H2.826L5.49 365.418L8.136 355.572H10.404L13.014 365.4L15.696 355.572H18.126L14.256 369H11.88ZM27.947 367.83C26.993 368.73 25.535 369.432 23.609 369.432C20.315 369.432 18.245 367.308 18.245 364.5C18.245 361.692 20.297 359.568 23.231 359.568C25.949 359.568 28.073 361.656 28.073 364.446V365.022H20.621C20.819 366.678 21.953 367.632 23.645 367.632C24.959 367.632 25.949 367.146 26.723 366.444L27.947 367.83ZM23.213 361.404C21.935 361.404 21.017 362.214 20.711 363.51H25.679C25.373 362.232 24.473 361.404 23.213 361.404ZM29.7897 360.792L30.8877 355.572H33.4437L31.5177 360.792H29.7897ZM36.8686 364.284V369H34.6186V360H36.7606V361.908C37.0846 361.206 38.0206 359.964 39.3346 359.964H39.6406V362.466C39.5326 362.412 39.3346 362.394 39.2086 362.394C37.7686 362.394 36.8686 363.51 36.8686 364.284ZM50.5876 367.83C49.6336 368.73 48.1756 369.432 46.2496 369.432C42.9556 369.432 40.8856 367.308 40.8856 364.5C40.8856 361.692 42.9376 359.568 45.8716 359.568C48.5896 359.568 50.7136 361.656 50.7136 364.446V365.022H43.2616C43.4596 366.678 44.5936 367.632 46.2856 367.632C47.5996 367.632 48.5896 367.146 49.3636 366.444L50.5876 367.83ZM45.8536 361.404C44.5756 361.404 43.6576 362.214 43.3516 363.51H48.3196C48.0136 362.232 47.1136 361.404 45.8536 361.404ZM61.572 369V368.118C60.996 368.784 60.078 369.324 58.854 369.324C57 369.324 55.704 368.082 55.704 366.39C55.704 364.734 57 363.42 59.034 363.42C60.06 363.42 60.87 363.726 61.428 364.158V363.654C61.428 362.088 60.636 361.584 59.304 361.584C58.728 361.584 58.17 361.656 57.072 361.872L57 360.036C58.116 359.82 58.764 359.748 59.718 359.748C62.364 359.748 63.66 361.08 63.66 363.114V369H61.572ZM59.718 367.974C60.708 367.974 61.446 367.236 61.446 366.336C61.446 365.472 60.744 364.77 59.718 364.77C58.674 364.77 58.008 365.472 58.008 366.336C58.008 367.218 58.674 367.974 59.718 367.974ZM73.3842 361.872H72.2682V369H70.0362V361.872H68.9202V360H70.0362V357.138L72.2682 356.472V360H73.3842V361.872ZM84.2497 367.83C83.2957 368.73 81.8377 369.432 79.9117 369.432C76.6177 369.432 74.5477 367.308 74.5477 364.5C74.5477 361.692 76.5997 359.568 79.5337 359.568C82.2517 359.568 84.3757 361.656 84.3757 364.446V365.022H76.9237C77.1217 366.678 78.2557 367.632 79.9477 367.632C81.2617 367.632 82.2517 367.146 83.0257 366.444L84.2497 367.83ZM79.5157 361.404C78.2377 361.404 77.3197 362.214 77.0137 363.51H81.9817C81.6757 362.232 80.7757 361.404 79.5157 361.404ZM91.6305 369V368.118C91.0545 368.784 90.1365 369.324 88.9125 369.324C87.0585 369.324 85.7625 368.082 85.7625 366.39C85.7625 364.734 87.0585 363.42 89.0925 363.42C90.1185 363.42 90.9285 363.726 91.4865 364.158V363.654C91.4865 362.088 90.6945 361.584 89.3625 361.584C88.7865 361.584 88.2285 361.656 87.1305 361.872L87.0585 360.036C88.1745 359.82 88.8225 359.748 89.7765 359.748C92.4225 359.748 93.7185 361.08 93.7185 363.114V369H91.6305ZM89.7765 367.974C90.7665 367.974 91.5045 367.236 91.5045 366.336C91.5045 365.472 90.8025 364.77 89.7765 364.77C88.7325 364.77 88.0665 365.472 88.0665 366.336C88.0665 367.218 88.7325 367.974 89.7765 367.974ZM98.0933 363.636V369H95.8433V360H98.0033V361.296C98.4173 360.576 99.2993 359.766 100.595 359.766C101.837 359.766 102.791 360.396 103.259 361.494C103.601 360.738 104.519 359.766 106.049 359.766C107.831 359.766 109.037 361.044 109.037 363.132V369H106.787V363.798C106.787 362.286 106.157 361.746 105.185 361.746C104.375 361.746 103.547 362.376 103.547 363.69V369H101.315V363.798C101.315 362.286 100.631 361.746 99.7313 361.746C98.8493 361.746 98.0933 362.43 98.0933 363.636ZM119.582 359.568C122.588 359.568 124.802 361.764 124.802 364.5C124.802 367.236 122.588 369.432 119.582 369.432C116.594 369.432 114.362 367.236 114.362 364.5C114.362 361.764 116.594 359.568 119.582 359.568ZM119.582 361.494C117.926 361.494 116.72 362.862 116.72 364.5C116.72 366.156 117.926 367.506 119.582 367.506C121.238 367.506 122.462 366.138 122.462 364.5C122.462 362.862 121.238 361.494 119.582 361.494ZM130.408 361.872H129.292V369H127.06V361.872H125.944V360H127.06V358.146C127.06 355.338 128.932 354.762 130.66 354.762V356.706C129.94 356.706 129.292 356.976 129.292 358.272V360H130.408V361.872ZM142.82 366.858V368.856C142.298 369.162 141.326 369.288 140.66 369.288C137.654 369.288 135.368 367.218 135.368 364.5C135.368 361.782 137.654 359.712 140.66 359.712C141.308 359.712 142.262 359.856 142.82 360.162V362.178H142.748C142.118 361.746 141.38 361.62 140.732 361.62C139.022 361.62 137.726 362.88 137.726 364.5C137.726 366.12 139.022 367.38 140.732 367.38C141.38 367.38 142.082 367.272 142.748 366.858H142.82ZM149.676 359.568C152.682 359.568 154.896 361.764 154.896 364.5C154.896 367.236 152.682 369.432 149.676 369.432C146.688 369.432 144.456 367.236 144.456 364.5C144.456 361.764 146.688 359.568 149.676 359.568ZM149.676 361.494C148.02 361.494 146.814 362.862 146.814 364.5C146.814 366.156 148.02 367.506 149.676 367.506C151.332 367.506 152.556 366.138 152.556 364.5C152.556 362.862 151.332 361.494 149.676 361.494ZM158.914 363.636V369H156.664V360H158.806V361.116C159.364 360.45 160.39 359.766 161.758 359.766C163.648 359.766 164.98 361.044 164.98 363.132V369H162.748V363.798C162.748 362.286 161.866 361.764 160.858 361.764C159.976 361.764 158.914 362.43 158.914 363.636ZM171.083 361.872H169.967V369H167.735V361.872H166.619V360H167.735V357.138L169.967 356.472V360H171.083V361.872ZM181.949 367.83C180.995 368.73 179.537 369.432 177.611 369.432C174.317 369.432 172.247 367.308 172.247 364.5C172.247 361.692 174.299 359.568 177.233 359.568C179.951 359.568 182.075 361.656 182.075 364.446V365.022H174.623C174.821 366.678 175.955 367.632 177.647 367.632C178.961 367.632 179.951 367.146 180.725 366.444L181.949 367.83ZM177.215 361.404C175.937 361.404 175.019 362.214 174.713 363.51H179.681C179.375 362.232 178.475 361.404 177.215 361.404ZM186.072 363.636V369H183.822V360H185.964V361.116C186.522 360.45 187.548 359.766 188.916 359.766C190.806 359.766 192.138 361.044 192.138 363.132V369H189.906V363.798C189.906 362.286 189.024 361.764 188.016 361.764C187.134 361.764 186.072 362.43 186.072 363.636ZM198.242 361.872H197.126V369H194.894V361.872H193.778V360H194.894V357.138L197.126 356.472V360H198.242V361.872ZM212.869 367.83C211.915 368.73 210.457 369.432 208.531 369.432C205.237 369.432 203.167 367.308 203.167 364.5C203.167 361.692 205.219 359.568 208.153 359.568C210.871 359.568 212.995 361.656 212.995 364.446V365.022H205.543C205.741 366.678 206.875 367.632 208.567 367.632C209.881 367.632 210.871 367.146 211.645 366.444L212.869 367.83ZM208.135 361.404C206.857 361.404 205.939 362.214 205.633 363.51H210.601C210.295 362.232 209.395 361.404 208.135 361.404ZM220.48 369L218.23 365.724L215.926 369H213.55L216.88 364.356L213.856 360H216.358L218.41 363.114L220.534 360H222.91L219.76 364.374L222.874 369H220.48ZM230.309 369.342C228.887 369.342 227.645 368.694 226.835 367.668V372.834H224.585V360H226.709V361.422C227.519 360.342 228.779 359.658 230.309 359.658C232.883 359.658 234.809 361.782 234.809 364.482C234.809 367.128 232.883 369.342 230.309 369.342ZM226.781 364.482C226.781 366.048 228.023 367.38 229.643 367.38C231.263 367.38 232.469 366.066 232.469 364.5C232.469 362.952 231.263 361.62 229.643 361.62C228.023 361.62 226.781 362.952 226.781 364.482ZM245.951 367.83C244.997 368.73 243.539 369.432 241.613 369.432C238.319 369.432 236.249 367.308 236.249 364.5C236.249 361.692 238.301 359.568 241.235 359.568C243.953 359.568 246.077 361.656 246.077 364.446V365.022H238.625C238.823 366.678 239.957 367.632 241.649 367.632C242.963 367.632 243.953 367.146 244.727 366.444L245.951 367.83ZM241.217 361.404C239.939 361.404 239.021 362.214 238.715 363.51H243.683C243.377 362.232 242.477 361.404 241.217 361.404ZM250.074 364.284V369H247.824V360H249.966V361.908C250.29 361.206 251.226 359.964 252.54 359.964H252.846V362.466C252.738 362.412 252.54 362.394 252.414 362.394C250.974 362.394 250.074 363.51 250.074 364.284ZM258.605 361.872H257.489V369H255.257V361.872H254.141V360H255.257V357.138L257.489 356.472V360H258.605V361.872ZM263.293 359.712C264.085 359.712 264.787 359.856 265.327 360.072V361.998C264.643 361.674 263.977 361.512 263.509 361.512C262.825 361.512 262.393 361.782 262.393 362.232C262.393 362.574 262.789 362.898 263.725 363.492C265.759 364.824 266.299 365.616 266.299 366.678C266.299 368.19 265.057 369.27 262.933 369.288C262.051 369.288 260.989 369.018 260.269 368.694V366.768C261.169 367.218 262.069 367.452 262.627 367.452C263.509 367.452 263.905 367.074 263.905 366.606C263.905 366.3 263.707 365.922 262.285 365.022C260.467 363.852 260.035 363.186 260.035 362.124C260.035 360.936 260.971 359.712 263.293 359.712ZM277.185 369V368.118C276.609 368.784 275.691 369.324 274.467 369.324C272.613 369.324 271.317 368.082 271.317 366.39C271.317 364.734 272.613 363.42 274.647 363.42C275.673 363.42 276.483 363.726 277.041 364.158V363.654C277.041 362.088 276.249 361.584 274.917 361.584C274.341 361.584 273.783 361.656 272.685 361.872L272.613 360.036C273.729 359.82 274.377 359.748 275.331 359.748C277.977 359.748 279.273 361.08 279.273 363.114V369H277.185ZM275.331 367.974C276.321 367.974 277.059 367.236 277.059 366.336C277.059 365.472 276.357 364.77 275.331 364.77C274.287 364.77 273.621 365.472 273.621 366.336C273.621 367.218 274.287 367.974 275.331 367.974ZM283.648 363.636V369H281.398V360H283.54V361.116C284.098 360.45 285.124 359.766 286.492 359.766C288.382 359.766 289.714 361.044 289.714 363.132V369H287.482V363.798C287.482 362.286 286.6 361.764 285.592 361.764C284.71 361.764 283.648 362.43 283.648 363.636ZM299.616 369V367.56C298.806 368.64 297.546 369.342 295.998 369.342C293.442 369.342 291.498 367.218 291.498 364.518C291.498 361.872 293.442 359.658 295.998 359.658C297.42 359.658 298.662 360.306 299.472 361.332V354.96H301.704V369H299.616ZM299.526 364.518C299.526 362.952 298.284 361.62 296.664 361.62C295.044 361.62 293.838 362.934 293.838 364.5C293.838 366.048 295.044 367.38 296.664 367.38C298.284 367.38 299.526 366.048 299.526 364.518ZM313.173 369.342C311.751 369.342 310.509 368.694 309.699 367.668V372.834H307.449V360H309.573V361.422C310.383 360.342 311.643 359.658 313.173 359.658C315.747 359.658 317.673 361.782 317.673 364.482C317.673 367.128 315.747 369.342 313.173 369.342ZM309.645 364.482C309.645 366.048 310.887 367.38 312.507 367.38C314.127 367.38 315.333 366.066 315.333 364.5C315.333 362.952 314.127 361.62 312.507 361.62C310.887 361.62 309.645 362.952 309.645 364.482ZM322.478 359.712C323.27 359.712 323.972 359.856 324.512 360.072V361.998C323.828 361.674 323.162 361.512 322.694 361.512C322.01 361.512 321.578 361.782 321.578 362.232C321.578 362.574 321.974 362.898 322.91 363.492C324.944 364.824 325.484 365.616 325.484 366.678C325.484 368.19 324.242 369.27 322.118 369.288C321.236 369.288 320.174 369.018 319.454 368.694V366.768C320.354 367.218 321.254 367.452 321.812 367.452C322.694 367.452 323.09 367.074 323.09 366.606C323.09 366.3 322.892 365.922 321.47 365.022C319.652 363.852 319.22 363.186 319.22 362.124C319.22 360.936 320.156 359.712 322.478 359.712ZM335.999 360L331.175 372.834H328.871L330.185 369.252L326.063 360H328.565L331.283 366.678L333.695 360H335.999ZM343.896 366.858V368.856C343.374 369.162 342.402 369.288 341.736 369.288C338.73 369.288 336.444 367.218 336.444 364.5C336.444 361.782 338.73 359.712 341.736 359.712C342.384 359.712 343.338 359.856 343.896 360.162V362.178H343.824C343.194 361.746 342.456 361.62 341.808 361.62C340.098 361.62 338.802 362.88 338.802 364.5C338.802 366.12 340.098 367.38 341.808 367.38C342.456 367.38 343.158 367.272 343.824 366.858H343.896ZM348.142 363.654V369H345.892V354.96H348.07V361.134C348.628 360.468 349.654 359.784 350.986 359.784C352.876 359.784 354.208 361.044 354.208 363.132V369H351.976V363.798C351.976 362.304 351.112 361.764 350.086 361.764C349.204 361.764 348.142 362.43 348.142 363.654ZM361.176 359.568C364.182 359.568 366.396 361.764 366.396 364.5C366.396 367.236 364.182 369.432 361.176 369.432C358.188 369.432 355.956 367.236 355.956 364.5C355.956 361.764 358.188 359.568 361.176 359.568ZM361.176 361.494C359.52 361.494 358.314 362.862 358.314 364.5C358.314 366.156 359.52 367.506 361.176 367.506C362.832 367.506 364.056 366.138 364.056 364.5C364.056 362.862 362.832 361.494 361.176 361.494ZM370.45 354.96V369H368.218V354.96H370.45ZM377.471 359.568C380.477 359.568 382.691 361.764 382.691 364.5C382.691 367.236 380.477 369.432 377.471 369.432C374.483 369.432 372.251 367.236 372.251 364.5C372.251 361.764 374.483 359.568 377.471 359.568ZM377.471 361.494C375.815 361.494 374.609 362.862 374.609 364.5C374.609 366.156 375.815 367.506 377.471 367.506C379.127 367.506 380.351 366.138 380.351 364.5C380.351 362.862 379.127 361.494 377.471 361.494ZM393.944 368.028C393.944 371.556 392.126 372.87 388.904 372.87C387.986 372.87 386.996 372.798 385.88 372.564V370.602C387.14 370.872 388.004 370.944 388.85 370.944C390.47 370.944 391.712 370.332 391.712 368.1V367.29C390.884 368.19 389.75 368.748 388.598 368.748C386.258 368.766 384.134 366.966 384.134 364.212C384.134 361.422 386.24 359.64 388.598 359.622C389.768 359.622 390.956 360.216 391.784 361.188V360H393.944V368.028ZM389.138 366.84C390.578 366.84 391.748 365.67 391.748 364.212C391.748 362.772 390.578 361.584 389.138 361.584C387.68 361.584 386.492 362.772 386.492 364.212C386.492 365.67 387.68 366.84 389.138 366.84ZM398.382 356.508V358.614H396.078V356.508H398.382ZM398.346 360V369H396.114V360H398.346ZM403.513 359.712C404.305 359.712 405.007 359.856 405.547 360.072V361.998C404.863 361.674 404.197 361.512 403.729 361.512C403.045 361.512 402.613 361.782 402.613 362.232C402.613 362.574 403.009 362.898 403.945 363.492C405.979 364.824 406.519 365.616 406.519 366.678C406.519 368.19 405.277 369.27 403.153 369.288C402.271 369.288 401.209 369.018 400.489 368.694V366.768C401.389 367.218 402.289 367.452 402.847 367.452C403.729 367.452 404.125 367.074 404.125 366.606C404.125 366.3 403.927 365.922 402.505 365.022C400.687 363.852 400.255 363.186 400.255 362.124C400.255 360.936 401.191 359.712 403.513 359.712ZM412.132 361.872H411.016V369H408.784V361.872H407.668V360H408.784V357.138L411.016 356.472V360H412.132V361.872ZM416.82 359.712C417.612 359.712 418.314 359.856 418.854 360.072V361.998C418.17 361.674 417.504 361.512 417.036 361.512C416.352 361.512 415.92 361.782 415.92 362.232C415.92 362.574 416.316 362.898 417.252 363.492C419.286 364.824 419.826 365.616 419.826 366.678C419.826 368.19 418.584 369.27 416.46 369.288C415.578 369.288 414.516 369.018 413.796 368.694V366.768C414.696 367.218 415.596 367.452 416.154 367.452C417.036 367.452 417.432 367.074 417.432 366.606C417.432 366.3 417.234 365.922 415.812 365.022C413.994 363.852 413.562 363.186 413.562 362.124C413.562 360.936 414.498 359.712 416.82 359.712ZM432.999 369V367.56C432.189 368.64 430.929 369.342 429.381 369.342C426.825 369.342 424.881 367.218 424.881 364.518C424.881 361.872 426.825 359.658 429.381 359.658C430.803 359.658 432.045 360.306 432.855 361.332V354.96H435.087V369H432.999ZM432.909 364.518C432.909 362.952 431.667 361.62 430.047 361.62C428.427 361.62 427.221 362.934 427.221 364.5C427.221 366.048 428.427 367.38 430.047 367.38C431.667 367.38 432.909 366.048 432.909 364.518ZM446.57 367.83C445.616 368.73 444.158 369.432 442.232 369.432C438.938 369.432 436.868 367.308 436.868 364.5C436.868 361.692 438.92 359.568 441.854 359.568C444.572 359.568 446.696 361.656 446.696 364.446V365.022H439.244C439.442 366.678 440.576 367.632 442.268 367.632C443.582 367.632 444.572 367.146 445.346 366.444L446.57 367.83ZM441.836 361.404C440.558 361.404 439.64 362.214 439.334 363.51H444.302C443.996 362.232 443.096 361.404 441.836 361.404ZM456.237 369V367.56C455.427 368.64 454.167 369.342 452.619 369.342C450.063 369.342 448.119 367.218 448.119 364.518C448.119 361.872 450.063 359.658 452.619 359.658C454.041 359.658 455.283 360.306 456.093 361.332V354.96H458.325V369H456.237ZM456.147 364.518C456.147 362.952 454.905 361.62 453.285 361.62C451.665 361.62 450.459 362.934 450.459 364.5C450.459 366.048 451.665 367.38 453.285 367.38C454.905 367.38 456.147 366.048 456.147 364.518ZM462.788 356.508V358.614H460.484V356.508H462.788ZM462.752 360V369H460.52V360H462.752ZM472.006 366.858V368.856C471.484 369.162 470.512 369.288 469.846 369.288C466.84 369.288 464.554 367.218 464.554 364.5C464.554 361.782 466.84 359.712 469.846 359.712C470.494 359.712 471.448 359.856 472.006 360.162V362.178H471.934C471.304 361.746 470.566 361.62 469.918 361.62C468.208 361.62 466.912 362.88 466.912 364.5C466.912 366.12 468.208 367.38 469.918 367.38C470.566 367.38 471.268 367.272 471.934 366.858H472.006ZM479.509 369V368.118C478.933 368.784 478.015 369.324 476.791 369.324C474.937 369.324 473.641 368.082 473.641 366.39C473.641 364.734 474.937 363.42 476.971 363.42C477.997 363.42 478.807 363.726 479.365 364.158V363.654C479.365 362.088 478.573 361.584 477.241 361.584C476.665 361.584 476.107 361.656 475.009 361.872L474.937 360.036C476.053 359.82 476.701 359.748 477.655 359.748C480.301 359.748 481.597 361.08 481.597 363.114V369H479.509ZM477.655 367.974C478.645 367.974 479.383 367.236 479.383 366.336C479.383 365.472 478.681 364.77 477.655 364.77C476.611 364.77 475.945 365.472 475.945 366.336C475.945 367.218 476.611 367.974 477.655 367.974ZM487.718 361.872H486.602V369H484.37V361.872H483.254V360H484.37V357.138L486.602 356.472V360H487.718V361.872ZM498.584 367.83C497.63 368.73 496.172 369.432 494.246 369.432C490.952 369.432 488.882 367.308 488.882 364.5C488.882 361.692 490.934 359.568 493.868 359.568C496.586 359.568 498.71 361.656 498.71 364.446V365.022H491.258C491.456 366.678 492.59 367.632 494.282 367.632C495.596 367.632 496.586 367.146 497.36 366.444L498.584 367.83ZM493.85 361.404C492.572 361.404 491.654 362.214 491.348 363.51H496.316C496.01 362.232 495.11 361.404 493.85 361.404ZM508.251 369V367.56C507.441 368.64 506.181 369.342 504.633 369.342C502.077 369.342 500.133 367.218 500.133 364.518C500.133 361.872 502.077 359.658 504.633 359.658C506.055 359.658 507.297 360.306 508.107 361.332V354.96H510.339V369H508.251ZM508.161 364.518C508.161 362.952 506.919 361.62 505.299 361.62C503.679 361.62 502.473 362.934 502.473 364.5C502.473 366.048 503.679 367.38 505.299 367.38C506.919 367.38 508.161 366.048 508.161 364.518ZM520.079 361.872H518.963V369H516.731V361.872H515.615V360H516.731V357.138L518.963 356.472V360H520.079V361.872ZM526.463 359.568C529.469 359.568 531.683 361.764 531.683 364.5C531.683 367.236 529.469 369.432 526.463 369.432C523.475 369.432 521.243 367.236 521.243 364.5C521.243 361.764 523.475 359.568 526.463 359.568ZM526.463 361.494C524.807 361.494 523.601 362.862 523.601 364.5C523.601 366.156 524.807 367.506 526.463 367.506C528.119 367.506 529.343 366.138 529.343 364.5C529.343 362.862 528.119 361.494 526.463 361.494ZM3.312 390.654V396H1.062V381.96H3.24V388.134C3.798 387.468 4.824 386.784 6.156 386.784C8.046 386.784 9.378 388.044 9.378 390.132V396H7.146V390.798C7.146 389.304 6.282 388.764 5.256 388.764C4.374 388.764 3.312 389.43 3.312 390.654ZM20.8278 394.83C19.8738 395.73 18.4158 396.432 16.4898 396.432C13.1958 396.432 11.1258 394.308 11.1258 391.5C11.1258 388.692 13.1778 386.568 16.1118 386.568C18.8298 386.568 20.9538 388.656 20.9538 391.446V392.022H13.5018C13.6998 393.678 14.8338 394.632 16.5258 394.632C17.8398 394.632 18.8298 394.146 19.6038 393.444L20.8278 394.83ZM16.0938 388.404C14.8158 388.404 13.8978 389.214 13.5918 390.51H18.5598C18.2538 389.232 17.3538 388.404 16.0938 388.404ZM24.9867 381.96V396H22.7547V381.96H24.9867ZM32.8719 396.342C31.4499 396.342 30.2079 395.694 29.3979 394.668V399.834H27.1479V387H29.2719V388.422C30.0819 387.342 31.3419 386.658 32.8719 386.658C35.4459 386.658 37.3719 388.782 37.3719 391.482C37.3719 394.128 35.4459 396.342 32.8719 396.342ZM29.3439 391.482C29.3439 393.048 30.5859 394.38 32.2059 394.38C33.8259 394.38 35.0319 393.066 35.0319 391.5C35.0319 389.952 33.8259 388.62 32.2059 388.62C30.5859 388.62 29.3439 389.952 29.3439 391.482ZM41.4934 383.508V385.614H39.1894V383.508H41.4934ZM41.4574 387V396H39.2254V387H41.4574ZM45.8686 390.636V396H43.6186V387H45.7606V388.116C46.3186 387.45 47.3446 386.766 48.7126 386.766C50.6026 386.766 51.9346 388.044 51.9346 390.132V396H49.7026V390.798C49.7026 389.286 48.8206 388.764 47.8126 388.764C46.9306 388.764 45.8686 389.43 45.8686 390.636ZM63.5285 395.028C63.5285 398.556 61.7105 399.87 58.4885 399.87C57.5705 399.87 56.5805 399.798 55.4645 399.564V397.602C56.7245 397.872 57.5885 397.944 58.4345 397.944C60.0545 397.944 61.2965 397.332 61.2965 395.1V394.29C60.4685 395.19 59.3345 395.748 58.1825 395.748C55.8425 395.766 53.7185 393.966 53.7185 391.212C53.7185 388.422 55.8245 386.64 58.1825 386.622C59.3525 386.622 60.5405 387.216 61.3685 388.188V387H63.5285V395.028ZM58.7225 393.84C60.1625 393.84 61.3325 392.67 61.3325 391.212C61.3325 389.772 60.1625 388.584 58.7225 388.584C57.2645 388.584 56.0765 389.772 56.0765 391.212C56.0765 392.67 57.2645 393.84 58.7225 393.84ZM76.3395 393.858V395.856C75.8175 396.162 74.8455 396.288 74.1795 396.288C71.1735 396.288 68.8875 394.218 68.8875 391.5C68.8875 388.782 71.1735 386.712 74.1795 386.712C74.8275 386.712 75.7815 386.856 76.3395 387.162V389.178H76.2675C75.6375 388.746 74.8995 388.62 74.2515 388.62C72.5415 388.62 71.2455 389.88 71.2455 391.5C71.2455 393.12 72.5415 394.38 74.2515 394.38C74.8995 394.38 75.6015 394.272 76.2675 393.858H76.3395ZM80.5854 391.284V396H78.3354V387H80.4774V388.908C80.8014 388.206 81.7374 386.964 83.0514 386.964H83.3574V389.466C83.2494 389.412 83.0514 389.394 82.9254 389.394C81.4854 389.394 80.5854 390.51 80.5854 391.284ZM94.3044 394.83C93.3504 395.73 91.8924 396.432 89.9664 396.432C86.6724 396.432 84.6024 394.308 84.6024 391.5C84.6024 388.692 86.6544 386.568 89.5884 386.568C92.3064 386.568 94.4304 388.656 94.4304 391.446V392.022H86.9784C87.1764 393.678 88.3104 394.632 90.0024 394.632C91.3164 394.632 92.3064 394.146 93.0804 393.444L94.3044 394.83ZM89.5704 388.404C88.2924 388.404 87.3744 389.214 87.0684 390.51H92.0364C91.7304 389.232 90.8304 388.404 89.5704 388.404ZM101.685 396V395.118C101.109 395.784 100.191 396.324 98.9672 396.324C97.1132 396.324 95.8172 395.082 95.8172 393.39C95.8172 391.734 97.1132 390.42 99.1472 390.42C100.173 390.42 100.983 390.726 101.541 391.158V390.654C101.541 389.088 100.749 388.584 99.4172 388.584C98.8412 388.584 98.2832 388.656 97.1852 388.872L97.1132 387.036C98.2292 386.82 98.8772 386.748 99.8312 386.748C102.477 386.748 103.773 388.08 103.773 390.114V396H101.685ZM99.8312 394.974C100.821 394.974 101.559 394.236 101.559 393.336C101.559 392.472 100.857 391.77 99.8312 391.77C98.7872 391.77 98.1212 392.472 98.1212 393.336C98.1212 394.218 98.7872 394.974 99.8312 394.974ZM109.894 388.872H108.778V396H106.546V388.872H105.43V387H106.546V384.138L108.778 383.472V387H109.894V388.872ZM116.277 386.568C119.283 386.568 121.497 388.764 121.497 391.5C121.497 394.236 119.283 396.432 116.277 396.432C113.289 396.432 111.057 394.236 111.057 391.5C111.057 388.764 113.289 386.568 116.277 386.568ZM116.277 388.494C114.621 388.494 113.415 389.862 113.415 391.5C113.415 393.156 114.621 394.506 116.277 394.506C117.933 394.506 119.157 393.138 119.157 391.5C119.157 389.862 117.933 388.494 116.277 388.494ZM125.515 391.284V396H123.265V387H125.407V388.908C125.731 388.206 126.667 386.964 127.981 386.964H128.287V389.466C128.179 389.412 127.981 389.394 127.855 389.394C126.415 389.394 125.515 390.51 125.515 391.284ZM133.056 386.712C133.848 386.712 134.55 386.856 135.09 387.072V388.998C134.406 388.674 133.74 388.512 133.272 388.512C132.588 388.512 132.156 388.782 132.156 389.232C132.156 389.574 132.552 389.898 133.488 390.492C135.522 391.824 136.062 392.616 136.062 393.678C136.062 395.19 134.82 396.27 132.696 396.288C131.814 396.288 130.752 396.018 130.032 395.694V393.768C130.932 394.218 131.832 394.452 132.39 394.452C133.272 394.452 133.668 394.074 133.668 393.606C133.668 393.3 133.47 392.922 132.048 392.022C130.23 390.852 129.798 390.186 129.798 389.124C129.798 387.936 130.734 386.712 133.056 386.712ZM143.691 390.636V396H141.441V387H143.601V388.296C144.015 387.576 144.897 386.766 146.193 386.766C147.435 386.766 148.389 387.396 148.857 388.494C149.199 387.738 150.117 386.766 151.647 386.766C153.429 386.766 154.635 388.044 154.635 390.132V396H152.385V390.798C152.385 389.286 151.755 388.746 150.783 388.746C149.973 388.746 149.145 389.376 149.145 390.69V396H146.913V390.798C146.913 389.286 146.229 388.746 145.329 388.746C144.447 388.746 143.691 389.43 143.691 390.636ZM162.224 396V395.118C161.648 395.784 160.73 396.324 159.506 396.324C157.652 396.324 156.356 395.082 156.356 393.39C156.356 391.734 157.652 390.42 159.686 390.42C160.712 390.42 161.522 390.726 162.08 391.158V390.654C162.08 389.088 161.288 388.584 159.956 388.584C159.38 388.584 158.822 388.656 157.724 388.872L157.652 387.036C158.768 386.82 159.416 386.748 160.37 386.748C163.016 386.748 164.312 388.08 164.312 390.114V396H162.224ZM160.37 394.974C161.36 394.974 162.098 394.236 162.098 393.336C162.098 392.472 161.396 391.77 160.37 391.77C159.326 391.77 158.66 392.472 158.66 393.336C158.66 394.218 159.326 394.974 160.37 394.974ZM172.58 396L170.33 392.724L168.026 396H165.65L168.98 391.356L165.956 387H168.458L170.51 390.114L172.634 387H175.01L171.86 391.374L174.974 396H172.58ZM179.007 383.508V385.614H176.703V383.508H179.007ZM178.971 387V396H176.739V387H178.971ZM183.382 390.636V396H181.132V387H183.292V388.296C183.706 387.576 184.588 386.766 185.884 386.766C187.126 386.766 188.08 387.396 188.548 388.494C188.89 387.738 189.808 386.766 191.338 386.766C193.12 386.766 194.326 388.044 194.326 390.132V396H192.076V390.798C192.076 389.286 191.446 388.746 190.474 388.746C189.664 388.746 188.836 389.376 188.836 390.69V396H186.604V390.798C186.604 389.286 185.92 388.746 185.02 388.746C184.138 388.746 183.382 389.43 183.382 390.636ZM198.73 383.508V385.614H196.426V383.508H198.73ZM198.694 387V396H196.462V387H198.694ZM208.811 394.11L208.055 396H200.423L200.315 395.802L205.247 388.89H201.197L201.971 387H208.757L208.865 387.198L203.969 394.11H208.811ZM219.672 394.83C218.718 395.73 217.26 396.432 215.334 396.432C212.04 396.432 209.97 394.308 209.97 391.5C209.97 388.692 212.022 386.568 214.956 386.568C217.674 386.568 219.798 388.656 219.798 391.446V392.022H212.346C212.544 393.678 213.678 394.632 215.37 394.632C216.684 394.632 217.674 394.146 218.448 393.444L219.672 394.83ZM214.938 388.404C213.66 388.404 212.742 389.214 212.436 390.51H217.404C217.098 389.232 216.198 388.404 214.938 388.404ZM229.144 388.872H228.028V396H225.796V388.872H224.68V387H225.796V384.138L228.028 383.472V387H229.144V388.872ZM233.076 390.654V396H230.826V381.96H233.004V388.134C233.562 387.468 234.588 386.784 235.92 386.784C237.81 386.784 239.142 388.044 239.142 390.132V396H236.91V390.798C236.91 389.304 236.046 388.764 235.02 388.764C234.138 388.764 233.076 389.43 233.076 390.654ZM250.592 394.83C249.638 395.73 248.18 396.432 246.254 396.432C242.96 396.432 240.89 394.308 240.89 391.5C240.89 388.692 242.942 386.568 245.876 386.568C248.594 386.568 250.718 388.656 250.718 391.446V392.022H243.266C243.464 393.678 244.598 394.632 246.29 394.632C247.604 394.632 248.594 394.146 249.368 393.444L250.592 394.83ZM245.858 388.404C244.58 388.404 243.662 389.214 243.356 390.51H248.324C248.018 389.232 247.118 388.404 245.858 388.404ZM254.786 383.508V385.614H252.482V383.508H254.786ZM254.75 387V396H252.518V387H254.75ZM259.162 391.284V396H256.912V387H259.054V388.908C259.378 388.206 260.314 386.964 261.628 386.964H261.934V389.466C261.826 389.412 261.628 389.394 261.502 389.394C260.062 389.394 259.162 390.51 259.162 391.284ZM273.024 396.342C271.602 396.342 270.36 395.694 269.55 394.668V399.834H267.3V387H269.424V388.422C270.234 387.342 271.494 386.658 273.024 386.658C275.598 386.658 277.524 388.782 277.524 391.482C277.524 394.128 275.598 396.342 273.024 396.342ZM269.496 391.482C269.496 393.048 270.738 394.38 272.358 394.38C273.978 394.38 275.184 393.066 275.184 391.5C275.184 389.952 273.978 388.62 272.358 388.62C270.738 388.62 269.496 389.952 269.496 391.482ZM284.184 386.568C287.19 386.568 289.404 388.764 289.404 391.5C289.404 394.236 287.19 396.432 284.184 396.432C281.196 396.432 278.964 394.236 278.964 391.5C278.964 388.764 281.196 386.568 284.184 386.568ZM284.184 388.494C282.528 388.494 281.322 389.862 281.322 391.5C281.322 393.156 282.528 394.506 284.184 394.506C285.84 394.506 287.064 393.138 287.064 391.5C287.064 389.862 285.84 388.494 284.184 388.494ZM295.009 388.872H293.893V396H291.661V388.872H290.545V387H291.661V384.138L293.893 383.472V387H295.009V388.872ZM305.875 394.83C304.921 395.73 303.463 396.432 301.537 396.432C298.243 396.432 296.173 394.308 296.173 391.5C296.173 388.692 298.225 386.568 301.159 386.568C303.877 386.568 306.001 388.656 306.001 391.446V392.022H298.549C298.747 393.678 299.881 394.632 301.573 394.632C302.887 394.632 303.877 394.146 304.651 393.444L305.875 394.83ZM301.141 388.404C299.863 388.404 298.945 389.214 298.639 390.51H303.607C303.301 389.232 302.401 388.404 301.141 388.404ZM309.998 390.636V396H307.748V387H309.89V388.116C310.448 387.45 311.474 386.766 312.842 386.766C314.732 386.766 316.064 388.044 316.064 390.132V396H313.832V390.798C313.832 389.286 312.95 388.764 311.942 388.764C311.06 388.764 309.998 389.43 309.998 390.636ZM322.167 388.872H321.051V396H318.819V388.872H317.703V387H318.819V384.138L321.051 383.472V387H322.167V388.872ZM326.171 383.508V385.614H323.867V383.508H326.171ZM326.135 387V396H323.903V387H326.135ZM333.804 396V395.118C333.228 395.784 332.31 396.324 331.086 396.324C329.232 396.324 327.936 395.082 327.936 393.39C327.936 391.734 329.232 390.42 331.266 390.42C332.292 390.42 333.102 390.726 333.66 391.158V390.654C333.66 389.088 332.868 388.584 331.536 388.584C330.96 388.584 330.402 388.656 329.304 388.872L329.232 387.036C330.348 386.82 330.996 386.748 331.95 386.748C334.596 386.748 335.892 388.08 335.892 390.114V396H333.804ZM331.95 394.974C332.94 394.974 333.678 394.236 333.678 393.336C333.678 392.472 332.976 391.77 331.95 391.77C330.906 391.77 330.24 392.472 330.24 393.336C330.24 394.218 330.906 394.974 331.95 394.974ZM340.303 381.96V396H338.071V381.96H340.303ZM342.698 393.462H345.362V396H342.698V393.462ZM8.172 436.14C12.294 436.14 15.552 439.326 15.552 443.268C15.552 447.228 12.294 450.432 8.172 450.432C4.014 450.432 0.774 447.228 0.774 443.268C0.774 439.326 4.014 436.14 8.172 436.14ZM8.172 438.372C5.418 438.372 3.222 440.622 3.222 443.268C3.222 445.95 5.418 448.2 8.172 448.2C10.908 448.2 13.086 445.95 13.086 443.268C13.086 440.622 10.908 438.372 8.172 438.372ZM23.5481 450V448.866C22.9901 449.55 21.9461 450.234 20.5961 450.234C18.7061 450.234 17.3561 448.956 17.3561 446.868V441H19.6061V446.202C19.6061 447.714 20.4701 448.236 21.4961 448.236C22.3781 448.236 23.4581 447.57 23.4581 446.364V441H25.6721V450H23.5481ZM30.0659 445.284V450H27.8159V441H29.9579V442.908C30.2819 442.206 31.2179 440.964 32.5319 440.964H32.8379V443.466C32.7299 443.412 32.5319 443.394 32.4059 443.394C30.9659 443.394 30.0659 444.51 30.0659 445.284ZM40.4546 444.636V450H38.2046V441H40.3646V442.296C40.7786 441.576 41.6606 440.766 42.9566 440.766C44.1986 440.766 45.1526 441.396 45.6206 442.494C45.9626 441.738 46.8806 440.766 48.4106 440.766C50.1926 440.766 51.3986 442.044 51.3986 444.132V450H49.1486V444.798C49.1486 443.286 48.5186 442.746 47.5466 442.746C46.7366 442.746 45.9086 443.376 45.9086 444.69V450H43.6766V444.798C43.6766 443.286 42.9926 442.746 42.0926 442.746C41.2106 442.746 40.4546 443.43 40.4546 444.636ZM55.802 437.508V439.614H53.498V437.508H55.802ZM55.766 441V450H53.534V441H55.766ZM60.9332 440.712C61.7252 440.712 62.4272 440.856 62.9672 441.072V442.998C62.2832 442.674 61.6172 442.512 61.1492 442.512C60.4652 442.512 60.0332 442.782 60.0332 443.232C60.0332 443.574 60.4292 443.898 61.3652 444.492C63.3992 445.824 63.9392 446.616 63.9392 447.678C63.9392 449.19 62.6972 450.27 60.5732 450.288C59.6912 450.288 58.6292 450.018 57.9092 449.694V447.768C58.8092 448.218 59.7092 448.452 60.2672 448.452C61.1492 448.452 61.5452 448.074 61.5452 447.606C61.5452 447.3 61.3472 446.922 59.9252 446.022C58.1072 444.852 57.6752 444.186 57.6752 443.124C57.6752 441.936 58.6112 440.712 60.9332 440.712ZM68.7203 440.712C69.5123 440.712 70.2143 440.856 70.7543 441.072V442.998C70.0703 442.674 69.4043 442.512 68.9363 442.512C68.2523 442.512 67.8203 442.782 67.8203 443.232C67.8203 443.574 68.2163 443.898 69.1523 444.492C71.1863 445.824 71.7263 446.616 71.7263 447.678C71.7263 449.19 70.4843 450.27 68.3603 450.288C67.4783 450.288 66.4163 450.018 65.6963 449.694V447.768C66.5963 448.218 67.4963 448.452 68.0543 448.452C68.9363 448.452 69.3323 448.074 69.3323 447.606C69.3323 447.3 69.1343 446.922 67.7123 446.022C65.8943 444.852 65.4623 444.186 65.4623 443.124C65.4623 441.936 66.3983 440.712 68.7203 440.712ZM75.8235 437.508V439.614H73.5195V437.508H75.8235ZM75.7875 441V450H73.5555V441H75.7875ZM82.8087 440.568C85.8147 440.568 88.0287 442.764 88.0287 445.5C88.0287 448.236 85.8147 450.432 82.8087 450.432C79.8207 450.432 77.5887 448.236 77.5887 445.5C77.5887 442.764 79.8207 440.568 82.8087 440.568ZM82.8087 442.494C81.1527 442.494 79.9467 443.862 79.9467 445.5C79.9467 447.156 81.1527 448.506 82.8087 448.506C84.4647 448.506 85.6887 447.138 85.6887 445.5C85.6887 443.862 84.4647 442.494 82.8087 442.494ZM92.0464 444.636V450H89.7964V441H91.9384V442.116C92.4964 441.45 93.5224 440.766 94.8904 440.766C96.7804 440.766 98.1124 442.044 98.1124 444.132V450H95.8804V444.798C95.8804 443.286 94.9984 442.764 93.9904 442.764C93.1084 442.764 92.0464 443.43 92.0464 444.636ZM106.146 437.508V439.614H103.842V437.508H106.146ZM106.11 441V450H103.878V441H106.11ZM111.277 440.712C112.069 440.712 112.771 440.856 113.311 441.072V442.998C112.627 442.674 111.961 442.512 111.493 442.512C110.809 442.512 110.377 442.782 110.377 443.232C110.377 443.574 110.773 443.898 111.709 444.492C113.743 445.824 114.283 446.616 114.283 447.678C114.283 449.19 113.041 450.27 110.917 450.288C110.035 450.288 108.973 450.018 108.253 449.694V447.768C109.153 448.218 110.053 448.452 110.611 448.452C111.493 448.452 111.889 448.074 111.889 447.606C111.889 447.3 111.691 446.922 110.269 446.022C108.451 444.852 108.019 444.186 108.019 443.124C108.019 441.936 108.955 440.712 111.277 440.712ZM123.658 442.872H122.542V450H120.31V442.872H119.194V441H120.31V438.138L122.542 437.472V441H123.658V442.872ZM130.041 440.568C133.047 440.568 135.261 442.764 135.261 445.5C135.261 448.236 133.047 450.432 130.041 450.432C127.053 450.432 124.821 448.236 124.821 445.5C124.821 442.764 127.053 440.568 130.041 440.568ZM130.041 442.494C128.385 442.494 127.179 443.862 127.179 445.5C127.179 447.156 128.385 448.506 130.041 448.506C131.697 448.506 132.921 447.138 132.921 445.5C132.921 443.862 131.697 442.494 130.041 442.494ZM149.974 448.83C149.02 449.73 147.562 450.432 145.636 450.432C142.342 450.432 140.272 448.308 140.272 445.5C140.272 442.692 142.324 440.568 145.258 440.568C147.976 440.568 150.1 442.656 150.1 445.446V446.022H142.648C142.846 447.678 143.98 448.632 145.672 448.632C146.986 448.632 147.976 448.146 148.75 447.444L149.974 448.83ZM145.24 442.404C143.962 442.404 143.044 443.214 142.738 444.51H147.706C147.4 443.232 146.5 442.404 145.24 442.404ZM154.097 444.636V450H151.847V441H154.007V442.296C154.421 441.576 155.303 440.766 156.599 440.766C157.841 440.766 158.795 441.396 159.263 442.494C159.605 441.738 160.523 440.766 162.053 440.766C163.835 440.766 165.041 442.044 165.041 444.132V450H162.791V444.798C162.791 443.286 162.161 442.746 161.189 442.746C160.379 442.746 159.551 443.376 159.551 444.69V450H157.319V444.798C157.319 443.286 156.635 442.746 155.735 442.746C154.853 442.746 154.097 443.43 154.097 444.636ZM172.847 450.342C171.425 450.342 170.183 449.694 169.373 448.668V453.834H167.123V441H169.247V442.422C170.057 441.342 171.317 440.658 172.847 440.658C175.421 440.658 177.347 442.782 177.347 445.482C177.347 448.128 175.421 450.342 172.847 450.342ZM169.319 445.482C169.319 447.048 170.561 448.38 172.181 448.38C173.801 448.38 175.007 447.066 175.007 445.5C175.007 443.952 173.801 442.62 172.181 442.62C170.561 442.62 169.319 443.952 169.319 445.482ZM184.006 440.568C187.012 440.568 189.226 442.764 189.226 445.5C189.226 448.236 187.012 450.432 184.006 450.432C181.018 450.432 178.786 448.236 178.786 445.5C178.786 442.764 181.018 440.568 184.006 440.568ZM184.006 442.494C182.35 442.494 181.144 443.862 181.144 445.5C181.144 447.156 182.35 448.506 184.006 448.506C185.662 448.506 186.886 447.138 186.886 445.5C186.886 443.862 185.662 442.494 184.006 442.494ZM198.763 450L196.837 444.132L194.947 450H192.805L189.709 441H192.049L193.885 447.102L195.811 441H197.881L199.807 447.102L201.643 441H203.893L200.815 450H198.763ZM214.082 448.83C213.128 449.73 211.67 450.432 209.744 450.432C206.45 450.432 204.38 448.308 204.38 445.5C204.38 442.692 206.432 440.568 209.366 440.568C212.084 440.568 214.208 442.656 214.208 445.446V446.022H206.756C206.954 447.678 208.088 448.632 209.78 448.632C211.094 448.632 212.084 448.146 212.858 447.444L214.082 448.83ZM209.348 442.404C208.07 442.404 207.152 443.214 206.846 444.51H211.814C211.508 443.232 210.608 442.404 209.348 442.404ZM218.205 445.284V450H215.955V441H218.097V442.908C218.421 442.206 219.357 440.964 220.671 440.964H220.977V443.466C220.869 443.412 220.671 443.394 220.545 443.394C219.105 443.394 218.205 444.51 218.205 445.284ZM235.487 441L230.663 453.834H228.359L229.673 450.252L225.551 441H228.053L230.771 447.678L233.183 441H235.487ZM241.152 440.568C244.158 440.568 246.372 442.764 246.372 445.5C246.372 448.236 244.158 450.432 241.152 450.432C238.164 450.432 235.932 448.236 235.932 445.5C235.932 442.764 238.164 440.568 241.152 440.568ZM241.152 442.494C239.496 442.494 238.29 443.862 238.29 445.5C238.29 447.156 239.496 448.506 241.152 448.506C242.808 448.506 244.032 447.138 244.032 445.5C244.032 443.862 242.808 442.494 241.152 442.494ZM254.296 450V448.866C253.738 449.55 252.694 450.234 251.344 450.234C249.454 450.234 248.104 448.956 248.104 446.868V441H250.354V446.202C250.354 447.714 251.218 448.236 252.244 448.236C253.126 448.236 254.206 447.57 254.206 446.364V441H256.42V450H254.296ZM270.429 450L268.503 444.132L266.613 450H264.471L261.375 441H263.715L265.551 447.102L267.477 441H269.547L271.473 447.102L273.309 441H275.559L272.481 450H270.429ZM279.22 437.508V439.614H276.916V437.508H279.22ZM279.184 441V450H276.952V441H279.184ZM285.341 442.872H284.225V450H281.993V442.872H280.877V441H281.993V438.138L284.225 437.472V441H285.341V442.872ZM289.273 444.654V450H287.023V435.96H289.201V442.134C289.759 441.468 290.785 440.784 292.117 440.784C294.007 440.784 295.339 442.044 295.339 444.132V450H293.107V444.798C293.107 443.304 292.243 442.764 291.217 442.764C290.335 442.764 289.273 443.43 289.273 444.654ZM304.056 440.712C304.848 440.712 305.55 440.856 306.09 441.072V442.998C305.406 442.674 304.74 442.512 304.272 442.512C303.588 442.512 303.156 442.782 303.156 443.232C303.156 443.574 303.552 443.898 304.488 444.492C306.522 445.824 307.062 446.616 307.062 447.678C307.062 449.19 305.82 450.27 303.696 450.288C302.814 450.288 301.752 450.018 301.032 449.694V447.768C301.932 448.218 302.832 448.452 303.39 448.452C304.272 448.452 304.668 448.074 304.668 447.606C304.668 447.3 304.47 446.922 303.048 446.022C301.23 444.852 300.798 444.186 300.798 443.124C300.798 441.936 301.734 440.712 304.056 440.712ZM315.929 447.858V449.856C315.407 450.162 314.435 450.288 313.769 450.288C310.763 450.288 308.477 448.218 308.477 445.5C308.477 442.782 310.763 440.712 313.769 440.712C314.417 440.712 315.371 440.856 315.929 441.162V443.178H315.857C315.227 442.746 314.489 442.62 313.841 442.62C312.131 442.62 310.835 443.88 310.835 445.5C310.835 447.12 312.131 448.38 313.841 448.38C314.489 448.38 315.191 448.272 315.857 447.858H315.929ZM320.247 437.508V439.614H317.943V437.508H320.247ZM320.211 441V450H317.979V441H320.211ZM331.715 448.83C330.761 449.73 329.303 450.432 327.377 450.432C324.083 450.432 322.013 448.308 322.013 445.5C322.013 442.692 324.065 440.568 326.999 440.568C329.717 440.568 331.841 442.656 331.841 445.446V446.022H324.389C324.587 447.678 325.721 448.632 327.413 448.632C328.727 448.632 329.717 448.146 330.491 447.444L331.715 448.83ZM326.981 442.404C325.703 442.404 324.785 443.214 324.479 444.51H329.447C329.141 443.232 328.241 442.404 326.981 442.404ZM335.837 444.636V450H333.587V441H335.729V442.116C336.287 441.45 337.313 440.766 338.681 440.766C340.571 440.766 341.903 442.044 341.903 444.132V450H339.671V444.798C339.671 443.286 338.789 442.764 337.781 442.764C336.899 442.764 335.837 443.43 335.837 444.636ZM351.103 447.858V449.856C350.581 450.162 349.609 450.288 348.943 450.288C345.937 450.288 343.651 448.218 343.651 445.5C343.651 442.782 345.937 440.712 348.943 440.712C349.591 440.712 350.545 440.856 351.103 441.162V443.178H351.031C350.401 442.746 349.663 442.62 349.015 442.62C347.305 442.62 346.009 443.88 346.009 445.5C346.009 447.12 347.305 448.38 349.015 448.38C349.663 448.38 350.365 448.272 351.031 447.858H351.103ZM362.441 448.83C361.487 449.73 360.029 450.432 358.103 450.432C354.809 450.432 352.739 448.308 352.739 445.5C352.739 442.692 354.791 440.568 357.725 440.568C360.443 440.568 362.567 442.656 362.567 445.446V446.022H355.115C355.313 447.678 356.447 448.632 358.139 448.632C359.453 448.632 360.443 448.146 361.217 447.444L362.441 448.83ZM357.707 442.404C356.429 442.404 355.511 443.214 355.205 444.51H360.173C359.867 443.232 358.967 442.404 357.707 442.404ZM369.534 443.97V446.076H364.296V443.97H369.534ZM381.868 445.518C381.868 448.218 379.942 450.342 377.368 450.342C375.838 450.342 374.578 449.658 373.768 448.578V450H371.644V435.96H373.894V442.332C374.704 441.306 375.946 440.658 377.368 440.658C379.942 440.658 381.868 442.872 381.868 445.518ZM373.84 445.518C373.84 447.048 375.082 448.38 376.702 448.38C378.322 448.38 379.528 447.048 379.528 445.5C379.528 443.934 378.322 442.62 376.702 442.62C375.082 442.62 373.84 443.952 373.84 445.518ZM389.175 450V449.118C388.599 449.784 387.681 450.324 386.457 450.324C384.603 450.324 383.307 449.082 383.307 447.39C383.307 445.734 384.603 444.42 386.637 444.42C387.663 444.42 388.473 444.726 389.031 445.158V444.654C389.031 443.088 388.239 442.584 386.907 442.584C386.331 442.584 385.773 442.656 384.675 442.872L384.603 441.036C385.719 440.82 386.367 440.748 387.321 440.748C389.967 440.748 391.263 442.08 391.263 444.114V450H389.175ZM387.321 448.974C388.311 448.974 389.049 448.236 389.049 447.336C389.049 446.472 388.347 445.77 387.321 445.77C386.277 445.77 385.611 446.472 385.611 447.336C385.611 448.218 386.277 448.974 387.321 448.974ZM400.48 447.858V449.856C399.958 450.162 398.986 450.288 398.32 450.288C395.314 450.288 393.028 448.218 393.028 445.5C393.028 442.782 395.314 440.712 398.32 440.712C398.968 440.712 399.922 440.856 400.48 441.162V443.178H400.408C399.778 442.746 399.04 442.62 398.392 442.62C396.682 442.62 395.386 443.88 395.386 445.5C395.386 447.12 396.682 448.38 398.392 448.38C399.04 448.38 399.742 448.272 400.408 447.858H400.48ZM408.344 450L405.626 446.022L404.726 446.958V450H402.476V435.96H404.726V444.24L408.002 441H410.828L407.282 444.564L411.062 450H408.344ZM421.17 448.83C420.216 449.73 418.758 450.432 416.832 450.432C413.538 450.432 411.468 448.308 411.468 445.5C411.468 442.692 413.52 440.568 416.454 440.568C419.172 440.568 421.296 442.656 421.296 445.446V446.022H413.844C414.042 447.678 415.176 448.632 416.868 448.632C418.182 448.632 419.172 448.146 419.946 447.444L421.17 448.83ZM416.436 442.404C415.158 442.404 414.24 443.214 413.934 444.51H418.902C418.596 443.232 417.696 442.404 416.436 442.404ZM430.836 450V448.56C430.026 449.64 428.766 450.342 427.218 450.342C424.662 450.342 422.718 448.218 422.718 445.518C422.718 442.872 424.662 440.658 427.218 440.658C428.64 440.658 429.882 441.306 430.692 442.332V435.96H432.924V450H430.836ZM430.746 445.518C430.746 443.952 429.504 442.62 427.884 442.62C426.264 442.62 425.058 443.934 425.058 445.5C425.058 447.048 426.264 448.38 427.884 448.38C429.504 448.38 430.746 447.048 430.746 445.518ZM440.991 437.508V439.614H438.687V437.508H440.991ZM440.955 441V450H438.723V441H440.955ZM445.367 444.636V450H443.117V441H445.259V442.116C445.817 441.45 446.843 440.766 448.211 440.766C450.101 440.766 451.433 442.044 451.433 444.132V450H449.201V444.798C449.201 443.286 448.319 442.764 447.311 442.764C446.429 442.764 445.367 443.43 445.367 444.636ZM456.547 440.712C457.339 440.712 458.041 440.856 458.581 441.072V442.998C457.897 442.674 457.231 442.512 456.763 442.512C456.079 442.512 455.647 442.782 455.647 443.232C455.647 443.574 456.043 443.898 456.979 444.492C459.013 445.824 459.553 446.616 459.553 447.678C459.553 449.19 458.311 450.27 456.187 450.288C455.305 450.288 454.243 450.018 453.523 449.694V447.768C454.423 448.218 455.323 448.452 455.881 448.452C456.763 448.452 457.159 448.074 457.159 447.606C457.159 447.3 456.961 446.922 455.539 446.022C453.721 444.852 453.289 444.186 453.289 443.124C453.289 441.936 454.225 440.712 456.547 440.712ZM463.65 437.508V439.614H461.346V437.508H463.65ZM463.614 441V450H461.382V441H463.614ZM475.261 449.028C475.261 452.556 473.443 453.87 470.221 453.87C469.303 453.87 468.313 453.798 467.197 453.564V451.602C468.457 451.872 469.321 451.944 470.167 451.944C471.787 451.944 473.029 451.332 473.029 449.1V448.29C472.201 449.19 471.067 449.748 469.915 449.748C467.575 449.766 465.451 447.966 465.451 445.212C465.451 442.422 467.557 440.64 469.915 440.622C471.085 440.622 472.273 441.216 473.101 442.188V441H475.261V449.028ZM470.455 447.84C471.895 447.84 473.065 446.67 473.065 445.212C473.065 443.772 471.895 442.584 470.455 442.584C468.997 442.584 467.809 443.772 467.809 445.212C467.809 446.67 468.997 447.84 470.455 447.84ZM479.626 444.654V450H477.376V435.96H479.554V442.134C480.112 441.468 481.138 440.784 482.47 440.784C484.36 440.784 485.692 442.044 485.692 444.132V450H483.46V444.798C483.46 443.304 482.596 442.764 481.57 442.764C480.688 442.764 479.626 443.43 479.626 444.654ZM491.796 442.872H490.68V450H488.448V442.872H487.332V441H488.448V438.138L490.68 437.472V441H491.796V442.872ZM496.484 440.712C497.276 440.712 497.978 440.856 498.518 441.072V442.998C497.834 442.674 497.168 442.512 496.7 442.512C496.016 442.512 495.584 442.782 495.584 443.232C495.584 443.574 495.98 443.898 496.916 444.492C498.95 445.824 499.49 446.616 499.49 447.678C499.49 449.19 498.248 450.27 496.124 450.288C495.242 450.288 494.18 450.018 493.46 449.694V447.768C494.36 448.218 495.26 448.452 495.818 448.452C496.7 448.452 497.096 448.074 497.096 447.606C497.096 447.3 496.898 446.922 495.476 446.022C493.658 444.852 493.226 444.186 493.226 443.124C493.226 441.936 494.162 440.712 496.484 440.712ZM508.865 442.872H507.749V450H505.517V442.872H504.401V441H505.517V438.138L507.749 437.472V441H508.865V442.872ZM515.248 440.568C518.254 440.568 520.468 442.764 520.468 445.5C520.468 448.236 518.254 450.432 515.248 450.432C512.26 450.432 510.028 448.236 510.028 445.5C510.028 442.764 512.26 440.568 515.248 440.568ZM515.248 442.494C513.592 442.494 512.386 443.862 512.386 445.5C512.386 447.156 513.592 448.506 515.248 448.506C516.904 448.506 518.128 447.138 518.128 445.5C518.128 443.862 516.904 442.494 515.248 442.494ZM528.089 444.654V450H525.839V435.96H528.017V442.134C528.575 441.468 529.601 440.784 530.933 440.784C532.823 440.784 534.155 442.044 534.155 444.132V450H531.923V444.798C531.923 443.304 531.059 442.764 530.033 442.764C529.151 442.764 528.089 443.43 528.089 444.654ZM545.605 448.83C544.651 449.73 543.193 450.432 541.267 450.432C537.973 450.432 535.903 448.308 535.903 445.5C535.903 442.692 537.955 440.568 540.889 440.568C543.607 440.568 545.731 442.656 545.731 445.446V446.022H538.279C538.477 447.678 539.611 448.632 541.303 448.632C542.617 448.632 543.607 448.146 544.381 447.444L545.605 448.83ZM540.871 442.404C539.593 442.404 538.675 443.214 538.369 444.51H543.337C543.031 443.232 542.131 442.404 540.871 442.404ZM549.764 435.96V450H547.532V435.96H549.764ZM557.649 450.342C556.227 450.342 554.985 449.694 554.175 448.668V453.834H551.925V441H554.049V442.422C554.859 441.342 556.119 440.658 557.649 440.658C560.223 440.658 562.149 442.782 562.149 445.482C562.149 448.128 560.223 450.342 557.649 450.342ZM554.121 445.482C554.121 447.048 555.363 448.38 556.983 448.38C558.603 448.38 559.809 447.066 559.809 445.5C559.809 443.952 558.603 442.62 556.983 442.62C555.363 442.62 554.121 443.952 554.121 445.482ZM10.206 468L5.382 480.834H3.078L4.392 477.252L0.27 468H2.772L5.49 474.678L7.902 468H10.206ZM15.8712 467.568C18.8772 467.568 21.0912 469.764 21.0912 472.5C21.0912 475.236 18.8772 477.432 15.8712 477.432C12.8832 477.432 10.6512 475.236 10.6512 472.5C10.6512 469.764 12.8832 467.568 15.8712 467.568ZM15.8712 469.494C14.2152 469.494 13.0092 470.862 13.0092 472.5C13.0092 474.156 14.2152 475.506 15.8712 475.506C17.5272 475.506 18.7512 474.138 18.7512 472.5C18.7512 470.862 17.5272 469.494 15.8712 469.494ZM29.0149 477V475.866C28.4569 476.55 27.4129 477.234 26.0629 477.234C24.1729 477.234 22.8229 475.956 22.8229 473.868V468H25.0729V473.202C25.0729 474.714 25.9369 475.236 26.9629 475.236C27.8449 475.236 28.9249 474.57 28.9249 473.364V468H31.1389V477H29.0149ZM46.3722 476.028C46.3722 479.556 44.5542 480.87 41.3322 480.87C40.4142 480.87 39.4242 480.798 38.3082 480.564V478.602C39.5682 478.872 40.4322 478.944 41.2782 478.944C42.8982 478.944 44.1402 478.332 44.1402 476.1V475.29C43.3122 476.19 42.1782 476.748 41.0262 476.748C38.6862 476.766 36.5622 474.966 36.5622 472.212C36.5622 469.422 38.6682 467.64 41.0262 467.622C42.1962 467.622 43.3842 468.216 44.2122 469.188V468H46.3722V476.028ZM41.5662 474.84C43.0062 474.84 44.1762 473.67 44.1762 472.212C44.1762 470.772 43.0062 469.584 41.5662 469.584C40.1082 469.584 38.9202 470.772 38.9202 472.212C38.9202 473.67 40.1082 474.84 41.5662 474.84ZM50.7378 472.284V477H48.4878V468H50.6298V469.908C50.9538 469.206 51.8898 467.964 53.2038 467.964H53.5098V470.466C53.4018 470.412 53.2038 470.394 53.0778 470.394C51.6378 470.394 50.7378 471.51 50.7378 472.284ZM59.9747 467.568C62.9807 467.568 65.1947 469.764 65.1947 472.5C65.1947 475.236 62.9807 477.432 59.9747 477.432C56.9867 477.432 54.7547 475.236 54.7547 472.5C54.7547 469.764 56.9867 467.568 59.9747 467.568ZM59.9747 469.494C58.3187 469.494 57.1127 470.862 57.1127 472.5C57.1127 474.156 58.3187 475.506 59.9747 475.506C61.6307 475.506 62.8547 474.138 62.8547 472.5C62.8547 470.862 61.6307 469.494 59.9747 469.494ZM74.7322 477L72.8062 471.132L70.9162 477H68.7742L65.6782 468H68.0182L69.8542 474.102L71.7802 468H73.8502L75.7762 474.102L77.6122 468H79.8622L76.7842 477H74.7322ZM90.3122 477V476.118C89.7362 476.784 88.8182 477.324 87.5942 477.324C85.7402 477.324 84.4442 476.082 84.4442 474.39C84.4442 472.734 85.7402 471.42 87.7742 471.42C88.8002 471.42 89.6102 471.726 90.1682 472.158V471.654C90.1682 470.088 89.3762 469.584 88.0442 469.584C87.4682 469.584 86.9102 469.656 85.8122 469.872L85.7402 468.036C86.8562 467.82 87.5042 467.748 88.4582 467.748C91.1042 467.748 92.4002 469.08 92.4002 471.114V477H90.3122ZM88.4582 475.974C89.4482 475.974 90.1862 475.236 90.1862 474.336C90.1862 473.472 89.4842 472.77 88.4582 472.77C87.4142 472.77 86.7482 473.472 86.7482 474.336C86.7482 475.218 87.4142 475.974 88.4582 475.974ZM96.7749 471.636V477H94.5249V468H96.6669V469.116C97.2249 468.45 98.2509 467.766 99.6189 467.766C101.509 467.766 102.841 469.044 102.841 471.132V477H100.609V471.798C100.609 470.286 99.7269 469.764 98.7189 469.764C97.8369 469.764 96.7749 470.43 96.7749 471.636ZM112.743 477V475.56C111.933 476.64 110.673 477.342 109.125 477.342C106.569 477.342 104.625 475.218 104.625 472.518C104.625 469.872 106.569 467.658 109.125 467.658C110.547 467.658 111.789 468.306 112.599 469.332V462.96H114.831V477H112.743ZM112.653 472.518C112.653 470.952 111.411 469.62 109.791 469.62C108.171 469.62 106.965 470.934 106.965 472.5C106.965 474.048 108.171 475.38 109.791 475.38C111.411 475.38 112.653 474.048 112.653 472.518ZM123.582 467.712C124.374 467.712 125.076 467.856 125.616 468.072V469.998C124.932 469.674 124.266 469.512 123.798 469.512C123.114 469.512 122.682 469.782 122.682 470.232C122.682 470.574 123.078 470.898 124.014 471.492C126.048 472.824 126.588 473.616 126.588 474.678C126.588 476.19 125.346 477.27 123.222 477.288C122.34 477.288 121.278 477.018 120.558 476.694V474.768C121.458 475.218 122.358 475.452 122.916 475.452C123.798 475.452 124.194 475.074 124.194 474.606C124.194 474.3 123.996 473.922 122.574 473.022C120.756 471.852 120.324 471.186 120.324 470.124C120.324 468.936 121.26 467.712 123.582 467.712ZM134.519 477V475.866C133.961 476.55 132.917 477.234 131.567 477.234C129.677 477.234 128.327 475.956 128.327 473.868V468H130.577V473.202C130.577 474.714 131.441 475.236 132.467 475.236C133.349 475.236 134.429 474.57 134.429 473.364V468H136.643V477H134.519ZM145.879 474.858V476.856C145.357 477.162 144.385 477.288 143.719 477.288C140.713 477.288 138.427 475.218 138.427 472.5C138.427 469.782 140.713 467.712 143.719 467.712C144.367 467.712 145.321 467.856 145.879 468.162V470.178H145.807C145.177 469.746 144.439 469.62 143.791 469.62C142.081 469.62 140.785 470.88 140.785 472.5C140.785 474.12 142.081 475.38 143.791 475.38C144.439 475.38 145.141 475.272 145.807 474.858H145.879ZM154.967 474.858V476.856C154.445 477.162 153.473 477.288 152.807 477.288C149.801 477.288 147.515 475.218 147.515 472.5C147.515 469.782 149.801 467.712 152.807 467.712C153.455 467.712 154.409 467.856 154.967 468.162V470.178H154.895C154.265 469.746 153.527 469.62 152.879 469.62C151.169 469.62 149.873 470.88 149.873 472.5C149.873 474.12 151.169 475.38 152.879 475.38C153.527 475.38 154.229 475.272 154.895 474.858H154.967ZM166.304 475.83C165.35 476.73 163.892 477.432 161.966 477.432C158.672 477.432 156.602 475.308 156.602 472.5C156.602 469.692 158.654 467.568 161.588 467.568C164.306 467.568 166.43 469.656 166.43 472.446V473.022H158.978C159.176 474.678 160.31 475.632 162.002 475.632C163.316 475.632 164.306 475.146 165.08 474.444L166.304 475.83ZM161.57 469.404C160.292 469.404 159.374 470.214 159.068 471.51H164.036C163.73 470.232 162.83 469.404 161.57 469.404ZM177.519 475.83C176.565 476.73 175.107 477.432 173.181 477.432C169.887 477.432 167.817 475.308 167.817 472.5C167.817 469.692 169.869 467.568 172.803 467.568C175.521 467.568 177.645 469.656 177.645 472.446V473.022H170.193C170.391 474.678 171.525 475.632 173.217 475.632C174.531 475.632 175.521 475.146 176.295 474.444L177.519 475.83ZM172.785 469.404C171.507 469.404 170.589 470.214 170.283 471.51H175.251C174.945 470.232 174.045 469.404 172.785 469.404ZM187.186 477V475.56C186.376 476.64 185.116 477.342 183.568 477.342C181.012 477.342 179.068 475.218 179.068 472.518C179.068 469.872 181.012 467.658 183.568 467.658C184.99 467.658 186.232 468.306 187.042 469.332V462.96H189.274V477H187.186ZM187.096 472.518C187.096 470.952 185.854 469.62 184.234 469.62C182.614 469.62 181.408 470.934 181.408 472.5C181.408 474.048 182.614 475.38 184.234 475.38C185.854 475.38 187.096 474.048 187.096 472.518ZM197.341 464.508V466.614H195.037V464.508H197.341ZM197.305 468V477H195.073V468H197.305ZM201.716 471.636V477H199.466V468H201.608V469.116C202.166 468.45 203.192 467.766 204.56 467.766C206.45 467.766 207.782 469.044 207.782 471.132V477H205.55V471.798C205.55 470.286 204.668 469.764 203.66 469.764C202.778 469.764 201.716 470.43 201.716 471.636ZM217.49 469.872H216.374V477H214.142V469.872H213.026V468H214.142V465.138L216.374 464.472V468H217.49V469.872ZM221.421 471.654V477H219.171V462.96H221.349V469.134C221.907 468.468 222.933 467.784 224.265 467.784C226.155 467.784 227.487 469.044 227.487 471.132V477H225.255V471.798C225.255 470.304 224.391 469.764 223.365 469.764C222.483 469.764 221.421 470.43 221.421 471.654ZM238.937 475.83C237.983 476.73 236.525 477.432 234.599 477.432C231.305 477.432 229.235 475.308 229.235 472.5C229.235 469.692 231.287 467.568 234.221 467.568C236.939 467.568 239.063 469.656 239.063 472.446V473.022H231.611C231.809 474.678 232.943 475.632 234.635 475.632C235.949 475.632 236.939 475.146 237.713 474.444L238.937 475.83ZM234.203 469.404C232.925 469.404 232.007 470.214 231.701 471.51H236.669C236.363 470.232 235.463 469.404 234.203 469.404ZM252.208 477V475.56C251.398 476.64 250.138 477.342 248.59 477.342C246.034 477.342 244.09 475.218 244.09 472.518C244.09 469.872 246.034 467.658 248.59 467.658C250.012 467.658 251.254 468.306 252.064 469.332V462.96H254.296V477H252.208ZM252.118 472.518C252.118 470.952 250.876 469.62 249.256 469.62C247.636 469.62 246.43 470.934 246.43 472.5C246.43 474.048 247.636 475.38 249.256 475.38C250.876 475.38 252.118 474.048 252.118 472.518ZM258.759 464.508V466.614H256.455V464.508H258.759ZM258.723 468V477H256.491V468H258.723ZM270.37 476.028C270.37 479.556 268.552 480.87 265.33 480.87C264.412 480.87 263.422 480.798 262.306 480.564V478.602C263.566 478.872 264.43 478.944 265.276 478.944C266.896 478.944 268.138 478.332 268.138 476.1V475.29C267.31 476.19 266.176 476.748 265.024 476.748C262.684 476.766 260.56 474.966 260.56 472.212C260.56 469.422 262.666 467.64 265.024 467.622C266.194 467.622 267.382 468.216 268.21 469.188V468H270.37V476.028ZM265.564 474.84C267.004 474.84 268.174 473.67 268.174 472.212C268.174 470.772 267.004 469.584 265.564 469.584C264.106 469.584 262.918 470.772 262.918 472.212C262.918 473.67 264.106 474.84 265.564 474.84ZM274.808 464.508V466.614H272.504V464.508H274.808ZM274.772 468V477H272.54V468H274.772ZM280.929 469.872H279.813V477H277.581V469.872H276.465V468H277.581V465.138L279.813 464.472V468H280.929V469.872ZM287.996 477V476.118C287.42 476.784 286.502 477.324 285.278 477.324C283.424 477.324 282.128 476.082 282.128 474.39C282.128 472.734 283.424 471.42 285.458 471.42C286.484 471.42 287.294 471.726 287.852 472.158V471.654C287.852 470.088 287.06 469.584 285.728 469.584C285.152 469.584 284.594 469.656 283.496 469.872L283.424 468.036C284.54 467.82 285.188 467.748 286.142 467.748C288.788 467.748 290.084 469.08 290.084 471.114V477H287.996ZM286.142 475.974C287.132 475.974 287.87 475.236 287.87 474.336C287.87 473.472 287.168 472.77 286.142 472.77C285.098 472.77 284.432 473.472 284.432 474.336C284.432 475.218 285.098 475.974 286.142 475.974ZM294.494 462.96V477H292.262V462.96H294.494ZM308.521 477L306.595 471.132L304.705 477H302.563L299.467 468H301.807L303.643 474.102L305.569 468H307.639L309.565 474.102L311.401 468H313.651L310.573 477H308.521ZM319.358 467.568C322.364 467.568 324.578 469.764 324.578 472.5C324.578 475.236 322.364 477.432 319.358 477.432C316.37 477.432 314.138 475.236 314.138 472.5C314.138 469.764 316.37 467.568 319.358 467.568ZM319.358 469.494C317.702 469.494 316.496 470.862 316.496 472.5C316.496 474.156 317.702 475.506 319.358 475.506C321.014 475.506 322.238 474.138 322.238 472.5C322.238 470.862 321.014 469.494 319.358 469.494ZM328.595 472.284V477H326.345V468H328.487V469.908C328.811 469.206 329.747 467.964 331.061 467.964H331.367V470.466C331.259 470.412 331.061 470.394 330.935 470.394C329.495 470.394 328.595 471.51 328.595 472.284ZM335.416 462.96V477H333.184V462.96H335.416ZM345.372 477V475.56C344.562 476.64 343.302 477.342 341.754 477.342C339.198 477.342 337.254 475.218 337.254 472.518C337.254 469.872 339.198 467.658 341.754 467.658C343.176 467.658 344.418 468.306 345.228 469.332V462.96H347.46V477H345.372ZM345.282 472.518C345.282 470.952 344.04 469.62 342.42 469.62C340.8 469.62 339.594 470.934 339.594 472.5C339.594 474.048 340.8 475.38 342.42 475.38C344.04 475.38 345.282 474.048 345.282 472.518ZM349.835 474.462H352.499V477H349.835V474.462Z" fill="black"/>
</svg>
